%TF.GenerationSoftware,KiCad,Pcbnew,(6.0.10)*%
%TF.CreationDate,2023-01-17T16:52:09-07:00*%
%TF.ProjectId,MicroPanda,4d696372-6f50-4616-9e64-612e6b696361,rev?*%
%TF.SameCoordinates,Original*%
%TF.FileFunction,Drillmap*%
%TF.FilePolarity,Positive*%
%FSLAX45Y45*%
G04 Gerber Fmt 4.5, Leading zero omitted, Abs format (unit mm)*
G04 Created by KiCad (PCBNEW (6.0.10)) date 2023-01-17 16:52:09*
%MOMM*%
%LPD*%
G01*
G04 APERTURE LIST*
%ADD10C,0.050000*%
%ADD11C,0.200000*%
%ADD12C,0.040000*%
%ADD13C,0.070000*%
%ADD14C,0.080000*%
%ADD15C,0.090000*%
%ADD16C,0.100000*%
%ADD17C,0.110000*%
%ADD18C,0.130000*%
%ADD19C,0.150000*%
%ADD20C,0.160000*%
%ADD21C,0.170000*%
%ADD22C,0.178000*%
%ADD23C,0.190000*%
G04 APERTURE END LIST*
D10*
X22383400Y-14372600D02*
X6883400Y-14372600D01*
X6883400Y-14372600D02*
X6883400Y-4372600D01*
X6883400Y-4372600D02*
X22383400Y-4372600D01*
X22383400Y-4372600D02*
X22383400Y-14372600D01*
D11*
D12*
X9816150Y-13543600D02*
X9856150Y-13583600D01*
X9856150Y-13543600D02*
X9816150Y-13583600D01*
X10578150Y-7574600D02*
X10618150Y-7614600D01*
X10618150Y-7574600D02*
X10578150Y-7614600D01*
X10578150Y-11003600D02*
X10618150Y-11043600D01*
X10618150Y-11003600D02*
X10578150Y-11043600D01*
X11530650Y-5606100D02*
X11570650Y-5646100D01*
X11570650Y-5606100D02*
X11530650Y-5646100D01*
X11918000Y-9251000D02*
X11958000Y-9291000D01*
X11958000Y-9251000D02*
X11918000Y-9291000D01*
X12419650Y-13861100D02*
X12459650Y-13901100D01*
X12459650Y-13861100D02*
X12419650Y-13901100D01*
X12502200Y-12248200D02*
X12542200Y-12288200D01*
X12542200Y-12248200D02*
X12502200Y-12288200D01*
X13213400Y-10698800D02*
X13253400Y-10738800D01*
X13253400Y-10698800D02*
X13213400Y-10738800D01*
X13327700Y-7422200D02*
X13367700Y-7462200D01*
X13367700Y-7422200D02*
X13327700Y-7462200D01*
X13327700Y-7930200D02*
X13367700Y-7970200D01*
X13367700Y-7930200D02*
X13327700Y-7970200D01*
X13505500Y-6203000D02*
X13545500Y-6243000D01*
X13545500Y-6203000D02*
X13505500Y-6243000D01*
X13708700Y-6558600D02*
X13748700Y-6598600D01*
X13748700Y-6558600D02*
X13708700Y-6598600D01*
X13721400Y-7422200D02*
X13761400Y-7462200D01*
X13761400Y-7422200D02*
X13721400Y-7462200D01*
X13886500Y-6482400D02*
X13926500Y-6522400D01*
X13926500Y-6482400D02*
X13886500Y-6522400D01*
X14038900Y-6965000D02*
X14078900Y-7005000D01*
X14078900Y-6965000D02*
X14038900Y-7005000D01*
X14229400Y-7168200D02*
X14269400Y-7208200D01*
X14269400Y-7168200D02*
X14229400Y-7208200D01*
X14229400Y-7396800D02*
X14269400Y-7436800D01*
X14269400Y-7396800D02*
X14229400Y-7436800D01*
X14515150Y-13861100D02*
X14555150Y-13901100D01*
X14555150Y-13861100D02*
X14515150Y-13901100D01*
X14826300Y-7930200D02*
X14866300Y-7970200D01*
X14866300Y-7930200D02*
X14826300Y-7970200D01*
X15404150Y-10368600D02*
X15444150Y-10408600D01*
X15444150Y-10368600D02*
X15404150Y-10408600D01*
X15785150Y-5288600D02*
X15825150Y-5328600D01*
X15825150Y-5288600D02*
X15785150Y-5328600D01*
X16293150Y-13797600D02*
X16333150Y-13837600D01*
X16333150Y-13797600D02*
X16293150Y-13837600D01*
X16610650Y-8971600D02*
X16650650Y-9011600D01*
X16650650Y-8971600D02*
X16610650Y-9011600D01*
X17531400Y-7765100D02*
X17571400Y-7805100D01*
X17571400Y-7765100D02*
X17531400Y-7805100D01*
X17531400Y-8717600D02*
X17571400Y-8757600D01*
X17571400Y-8717600D02*
X17531400Y-8757600D01*
X17753650Y-13797600D02*
X17793650Y-13837600D01*
X17793650Y-13797600D02*
X17753650Y-13837600D01*
X18388650Y-9289100D02*
X18428650Y-9329100D01*
X18428650Y-9289100D02*
X18388650Y-9329100D01*
X18769650Y-5034600D02*
X18809650Y-5074600D01*
X18809650Y-5034600D02*
X18769650Y-5074600D01*
X18833150Y-7130100D02*
X18873150Y-7170100D01*
X18873150Y-7130100D02*
X18833150Y-7170100D01*
X18896650Y-11575100D02*
X18936650Y-11615100D01*
X18936650Y-11575100D02*
X18896650Y-11615100D01*
X18928400Y-10495600D02*
X18968400Y-10535600D01*
X18968400Y-10495600D02*
X18928400Y-10535600D01*
X19080800Y-13772200D02*
X19120800Y-13812200D01*
X19120800Y-13772200D02*
X19080800Y-13812200D01*
X19118900Y-9289100D02*
X19158900Y-9329100D01*
X19158900Y-9289100D02*
X19118900Y-9329100D01*
X19499900Y-10495600D02*
X19539900Y-10535600D01*
X19539900Y-10495600D02*
X19499900Y-10535600D01*
X19626900Y-10686100D02*
X19666900Y-10726100D01*
X19666900Y-10686100D02*
X19626900Y-10726100D01*
X19722150Y-6749100D02*
X19762150Y-6789100D01*
X19762150Y-6749100D02*
X19722150Y-6789100D01*
X20420650Y-11702100D02*
X20460650Y-11742100D01*
X20460650Y-11702100D02*
X20420650Y-11742100D01*
X21881150Y-10940100D02*
X21921150Y-10980100D01*
X21921150Y-10940100D02*
X21881150Y-10980100D01*
X21944650Y-8527100D02*
X21984650Y-8567100D01*
X21984650Y-8527100D02*
X21944650Y-8567100D01*
D13*
X19482598Y-6199936D02*
G75*
G03*
X19482598Y-6199936I-35000J0D01*
G01*
X19482598Y-8400666D02*
G75*
G03*
X19482598Y-8400666I-35000J0D01*
G01*
X19531490Y-10271460D02*
G75*
G03*
X19531490Y-10271460I-35000J0D01*
G01*
X19531490Y-12472190D02*
G75*
G03*
X19531490Y-12472190I-35000J0D01*
G01*
X19682598Y-6199936D02*
G75*
G03*
X19682598Y-6199936I-35000J0D01*
G01*
X19682598Y-8400666D02*
G75*
G03*
X19682598Y-8400666I-35000J0D01*
G01*
X19731490Y-10271460D02*
G75*
G03*
X19731490Y-10271460I-35000J0D01*
G01*
X19731490Y-12472190D02*
G75*
G03*
X19731490Y-12472190I-35000J0D01*
G01*
X19882598Y-6199936D02*
G75*
G03*
X19882598Y-6199936I-35000J0D01*
G01*
X19882598Y-8400666D02*
G75*
G03*
X19882598Y-8400666I-35000J0D01*
G01*
X19931490Y-10271460D02*
G75*
G03*
X19931490Y-10271460I-35000J0D01*
G01*
X19931490Y-12472190D02*
G75*
G03*
X19931490Y-12472190I-35000J0D01*
G01*
X19980900Y-9496100D02*
G75*
G03*
X19980900Y-9496100I-35000J0D01*
G01*
X20018978Y-5482076D02*
G75*
G03*
X20018978Y-5482076I-35000J0D01*
G01*
X20060900Y-9376100D02*
G75*
G03*
X20060900Y-9376100I-35000J0D01*
G01*
X20082598Y-6199936D02*
G75*
G03*
X20082598Y-6199936I-35000J0D01*
G01*
X20082598Y-8400666D02*
G75*
G03*
X20082598Y-8400666I-35000J0D01*
G01*
X20098978Y-5362076D02*
G75*
G03*
X20098978Y-5362076I-35000J0D01*
G01*
X20131490Y-10271460D02*
G75*
G03*
X20131490Y-10271460I-35000J0D01*
G01*
X20131490Y-12472190D02*
G75*
G03*
X20131490Y-12472190I-35000J0D01*
G01*
X20140900Y-9496100D02*
G75*
G03*
X20140900Y-9496100I-35000J0D01*
G01*
X20178978Y-5482076D02*
G75*
G03*
X20178978Y-5482076I-35000J0D01*
G01*
X20220900Y-9376100D02*
G75*
G03*
X20220900Y-9376100I-35000J0D01*
G01*
X20258978Y-5362076D02*
G75*
G03*
X20258978Y-5362076I-35000J0D01*
G01*
X20282598Y-6199936D02*
G75*
G03*
X20282598Y-6199936I-35000J0D01*
G01*
X20282598Y-8400666D02*
G75*
G03*
X20282598Y-8400666I-35000J0D01*
G01*
X20300900Y-9496100D02*
G75*
G03*
X20300900Y-9496100I-35000J0D01*
G01*
X20331490Y-10271460D02*
G75*
G03*
X20331490Y-10271460I-35000J0D01*
G01*
X20331490Y-12472190D02*
G75*
G03*
X20331490Y-12472190I-35000J0D01*
G01*
X20338978Y-5482076D02*
G75*
G03*
X20338978Y-5482076I-35000J0D01*
G01*
X20482598Y-6199936D02*
G75*
G03*
X20482598Y-6199936I-35000J0D01*
G01*
X20482598Y-8400666D02*
G75*
G03*
X20482598Y-8400666I-35000J0D01*
G01*
X20531490Y-10271460D02*
G75*
G03*
X20531490Y-10271460I-35000J0D01*
G01*
X20531490Y-12472190D02*
G75*
G03*
X20531490Y-12472190I-35000J0D01*
G01*
X20682598Y-6199936D02*
G75*
G03*
X20682598Y-6199936I-35000J0D01*
G01*
X20682598Y-8400666D02*
G75*
G03*
X20682598Y-8400666I-35000J0D01*
G01*
X20731490Y-10271460D02*
G75*
G03*
X20731490Y-10271460I-35000J0D01*
G01*
X20731490Y-12472190D02*
G75*
G03*
X20731490Y-12472190I-35000J0D01*
G01*
X20882598Y-6199936D02*
G75*
G03*
X20882598Y-6199936I-35000J0D01*
G01*
X20882598Y-8400666D02*
G75*
G03*
X20882598Y-8400666I-35000J0D01*
G01*
X20931490Y-10271460D02*
G75*
G03*
X20931490Y-10271460I-35000J0D01*
G01*
X20931490Y-12472190D02*
G75*
G03*
X20931490Y-12472190I-35000J0D01*
G01*
X21082598Y-6199936D02*
G75*
G03*
X21082598Y-6199936I-35000J0D01*
G01*
X21082598Y-8400666D02*
G75*
G03*
X21082598Y-8400666I-35000J0D01*
G01*
X21131490Y-10271460D02*
G75*
G03*
X21131490Y-10271460I-35000J0D01*
G01*
X21131490Y-12472190D02*
G75*
G03*
X21131490Y-12472190I-35000J0D01*
G01*
X21282598Y-6199936D02*
G75*
G03*
X21282598Y-6199936I-35000J0D01*
G01*
X21282598Y-8400666D02*
G75*
G03*
X21282598Y-8400666I-35000J0D01*
G01*
X21331490Y-10271460D02*
G75*
G03*
X21331490Y-10271460I-35000J0D01*
G01*
X21331490Y-12472190D02*
G75*
G03*
X21331490Y-12472190I-35000J0D01*
G01*
D14*
X10363200Y-9561200D02*
X10363200Y-9641200D01*
X10323200Y-9601200D02*
X10403200Y-9601200D01*
X10363200Y-10577200D02*
X10363200Y-10657200D01*
X10323200Y-10617200D02*
X10403200Y-10617200D01*
X11836400Y-11898000D02*
X11836400Y-11978000D01*
X11796400Y-11938000D02*
X11876400Y-11938000D01*
X12051346Y-11005322D02*
X12051346Y-11085322D01*
X12011346Y-11045322D02*
X12091346Y-11045322D01*
X12051346Y-11355321D02*
X12051346Y-11435321D01*
X12011346Y-11395321D02*
X12091346Y-11395321D01*
X12407900Y-7818445D02*
X12407900Y-7898445D01*
X12367900Y-7858445D02*
X12447900Y-7858445D01*
X12407900Y-8068445D02*
X12407900Y-8148445D01*
X12367900Y-8108445D02*
X12447900Y-8108445D01*
X12852400Y-11898000D02*
X12852400Y-11978000D01*
X12812400Y-11938000D02*
X12892400Y-11938000D01*
X13067346Y-10989147D02*
X13067346Y-11069147D01*
X13027346Y-11029147D02*
X13107346Y-11029147D01*
X13067346Y-11339147D02*
X13067346Y-11419147D01*
X13027346Y-11379147D02*
X13107346Y-11379147D01*
X13895400Y-8702047D02*
X13895400Y-8782047D01*
X13855400Y-8742047D02*
X13935400Y-8742047D01*
X13895400Y-8902047D02*
X13895400Y-8982047D01*
X13855400Y-8942047D02*
X13935400Y-8942047D01*
X13895400Y-9102047D02*
X13895400Y-9182047D01*
X13855400Y-9142047D02*
X13935400Y-9142047D01*
X14095400Y-8702047D02*
X14095400Y-8782047D01*
X14055400Y-8742047D02*
X14135400Y-8742047D01*
X14095400Y-8902047D02*
X14095400Y-8982047D01*
X14055400Y-8942047D02*
X14135400Y-8942047D01*
X14095400Y-9102047D02*
X14095400Y-9182047D01*
X14055400Y-9142047D02*
X14135400Y-9142047D01*
X15125700Y-5577400D02*
X15125700Y-5657400D01*
X15085700Y-5617400D02*
X15165700Y-5617400D01*
X15125700Y-6077400D02*
X15125700Y-6157400D01*
X15085700Y-6117400D02*
X15165700Y-6117400D01*
X15428150Y-7173600D02*
X15428150Y-7253600D01*
X15388150Y-7213600D02*
X15468150Y-7213600D01*
X15480346Y-10840912D02*
X15480346Y-10920912D01*
X15440346Y-10880912D02*
X15520346Y-10880912D01*
X15480346Y-11340912D02*
X15480346Y-11420912D01*
X15440346Y-11380912D02*
X15520346Y-11380912D01*
X15928150Y-7173600D02*
X15928150Y-7253600D01*
X15888150Y-7213600D02*
X15968150Y-7213600D01*
X16623346Y-10840912D02*
X16623346Y-10920912D01*
X16583346Y-10880912D02*
X16663346Y-10880912D01*
X16623346Y-11340912D02*
X16623346Y-11420912D01*
X16583346Y-11380912D02*
X16663346Y-11380912D01*
X16877346Y-11969533D02*
X16877346Y-12049533D01*
X16837346Y-12009533D02*
X16917346Y-12009533D01*
X16877346Y-12469533D02*
X16877346Y-12549533D01*
X16837346Y-12509533D02*
X16917346Y-12509533D01*
X16877346Y-12946147D02*
X16877346Y-13026147D01*
X16837346Y-12986147D02*
X16917346Y-12986147D01*
X16877346Y-13446147D02*
X16877346Y-13526147D01*
X16837346Y-13486147D02*
X16917346Y-13486147D01*
X17679400Y-10803457D02*
X17679400Y-10883457D01*
X17639400Y-10843457D02*
X17719400Y-10843457D01*
X17679400Y-11565457D02*
X17679400Y-11645457D01*
X17639400Y-11605457D02*
X17719400Y-11605457D01*
X17933400Y-10803457D02*
X17933400Y-10883457D01*
X17893400Y-10843457D02*
X17973400Y-10843457D01*
X17933400Y-11565457D02*
X17933400Y-11645457D01*
X17893400Y-11605457D02*
X17973400Y-11605457D01*
X18187400Y-10803457D02*
X18187400Y-10883457D01*
X18147400Y-10843457D02*
X18227400Y-10843457D01*
X18187400Y-11565457D02*
X18187400Y-11645457D01*
X18147400Y-11605457D02*
X18227400Y-11605457D01*
X18441400Y-10803457D02*
X18441400Y-10883457D01*
X18401400Y-10843457D02*
X18481400Y-10843457D01*
X18441400Y-11565457D02*
X18441400Y-11645457D01*
X18401400Y-11605457D02*
X18481400Y-11605457D01*
X19544346Y-13026019D02*
X19544346Y-13106019D01*
X19504346Y-13066019D02*
X19584346Y-13066019D01*
X19544346Y-13376019D02*
X19544346Y-13456019D01*
X19504346Y-13416019D02*
X19584346Y-13416019D01*
X20750846Y-13026009D02*
X20750846Y-13106009D01*
X20710846Y-13066009D02*
X20790846Y-13066009D01*
X20750846Y-13376009D02*
X20750846Y-13456009D01*
X20710846Y-13416009D02*
X20790846Y-13416009D01*
X21005800Y-13752200D02*
X21005800Y-13832200D01*
X20965800Y-13792200D02*
X21045800Y-13792200D01*
X21139090Y-9205600D02*
X21139090Y-9285600D01*
X21099090Y-9245600D02*
X21179090Y-9245600D01*
X21266150Y-5384076D02*
X21266150Y-5464076D01*
X21226150Y-5424076D02*
X21306150Y-5424076D01*
X21266150Y-5634076D02*
X21266150Y-5714076D01*
X21226150Y-5674076D02*
X21306150Y-5674076D01*
X21389090Y-9205600D02*
X21389090Y-9285600D01*
X21349090Y-9245600D02*
X21429090Y-9245600D01*
X21524150Y-9713600D02*
X21524150Y-9793600D01*
X21484150Y-9753600D02*
X21564150Y-9753600D01*
X21901150Y-5272600D02*
X21901150Y-5352600D01*
X21861150Y-5312600D02*
X21941150Y-5312600D01*
X21901150Y-5772600D02*
X21901150Y-5852600D01*
X21861150Y-5812600D02*
X21941150Y-5812600D01*
X22021800Y-13752200D02*
X22021800Y-13832200D01*
X21981800Y-13792200D02*
X22061800Y-13792200D01*
X22024150Y-9713600D02*
X22024150Y-9793600D01*
X21984150Y-9753600D02*
X22064150Y-9753600D01*
D15*
X10395020Y-10944020D02*
X10395020Y-10880380D01*
X10331380Y-10880380D01*
X10331380Y-10944020D01*
X10395020Y-10944020D01*
X10395020Y-11198020D02*
X10395020Y-11134380D01*
X10331380Y-11134380D01*
X10331380Y-11198020D01*
X10395020Y-11198020D01*
X13140720Y-11969820D02*
X13140720Y-11906180D01*
X13077080Y-11906180D01*
X13077080Y-11969820D01*
X13140720Y-11969820D01*
X13394720Y-11969820D02*
X13394720Y-11906180D01*
X13331080Y-11906180D01*
X13331080Y-11969820D01*
X13394720Y-11969820D01*
X14090720Y-5785420D02*
X14090720Y-5721780D01*
X14027080Y-5721780D01*
X14027080Y-5785420D01*
X14090720Y-5785420D01*
X14090720Y-6039420D02*
X14090720Y-5975780D01*
X14027080Y-5975780D01*
X14027080Y-6039420D01*
X14090720Y-6039420D01*
X14090720Y-6293420D02*
X14090720Y-6229780D01*
X14027080Y-6229780D01*
X14027080Y-6293420D01*
X14090720Y-6293420D01*
X14090720Y-6801420D02*
X14090720Y-6737780D01*
X14027080Y-6737780D01*
X14027080Y-6801420D01*
X14090720Y-6801420D01*
X14344720Y-5658420D02*
X14344720Y-5594780D01*
X14281080Y-5594780D01*
X14281080Y-5658420D01*
X14344720Y-5658420D01*
X14344720Y-5912420D02*
X14344720Y-5848780D01*
X14281080Y-5848780D01*
X14281080Y-5912420D01*
X14344720Y-5912420D01*
X14344720Y-6166420D02*
X14344720Y-6102780D01*
X14281080Y-6102780D01*
X14281080Y-6166420D01*
X14344720Y-6166420D01*
X14344720Y-6420420D02*
X14344720Y-6356780D01*
X14281080Y-6356780D01*
X14281080Y-6420420D01*
X14344720Y-6420420D01*
X14344720Y-6674420D02*
X14344720Y-6610780D01*
X14281080Y-6610780D01*
X14281080Y-6674420D01*
X14344720Y-6674420D01*
X20072420Y-13773220D02*
X20072420Y-13709580D01*
X20008780Y-13709580D01*
X20008780Y-13773220D01*
X20072420Y-13773220D01*
X20326420Y-13773220D02*
X20326420Y-13709580D01*
X20262780Y-13709580D01*
X20262780Y-13773220D01*
X20326420Y-13773220D01*
D16*
X11366500Y-7540500D02*
X11416500Y-7490500D01*
X11366500Y-7440500D01*
X11316500Y-7490500D01*
X11366500Y-7540500D01*
X11620500Y-7540500D02*
X11670500Y-7490500D01*
X11620500Y-7440500D01*
X11570500Y-7490500D01*
X11620500Y-7540500D01*
X11633200Y-10210000D02*
X11683200Y-10160000D01*
X11633200Y-10110000D01*
X11583200Y-10160000D01*
X11633200Y-10210000D01*
X11633200Y-10464000D02*
X11683200Y-10414000D01*
X11633200Y-10364000D01*
X11583200Y-10414000D01*
X11633200Y-10464000D01*
X11768500Y-8428000D02*
X11818500Y-8378000D01*
X11768500Y-8328000D01*
X11718500Y-8378000D01*
X11768500Y-8428000D01*
X11768500Y-8682000D02*
X11818500Y-8632000D01*
X11768500Y-8582000D01*
X11718500Y-8632000D01*
X11768500Y-8682000D01*
X12067500Y-10212000D02*
X12117500Y-10162000D01*
X12067500Y-10112000D01*
X12017500Y-10162000D01*
X12067500Y-10212000D01*
X12067500Y-10466000D02*
X12117500Y-10416000D01*
X12067500Y-10366000D01*
X12017500Y-10416000D01*
X12067500Y-10466000D01*
X13017900Y-5584600D02*
X13067900Y-5534600D01*
X13017900Y-5484600D01*
X12967900Y-5534600D01*
X13017900Y-5584600D01*
X13017900Y-5838600D02*
X13067900Y-5788600D01*
X13017900Y-5738600D01*
X12967900Y-5788600D01*
X13017900Y-5838600D01*
X13017900Y-6656600D02*
X13067900Y-6606600D01*
X13017900Y-6556600D01*
X12967900Y-6606600D01*
X13017900Y-6656600D01*
X13017900Y-6910600D02*
X13067900Y-6860600D01*
X13017900Y-6810600D01*
X12967900Y-6860600D01*
X13017900Y-6910600D01*
X14020346Y-11088207D02*
X14070346Y-11038207D01*
X14020346Y-10988207D01*
X13970346Y-11038207D01*
X14020346Y-11088207D01*
X14274346Y-11088207D02*
X14324346Y-11038207D01*
X14274346Y-10988207D01*
X14224346Y-11038207D01*
X14274346Y-11088207D01*
X14528346Y-11088207D02*
X14578346Y-11038207D01*
X14528346Y-10988207D01*
X14478346Y-11038207D01*
X14528346Y-11088207D01*
X16750346Y-5500207D02*
X16800346Y-5450207D01*
X16750346Y-5400207D01*
X16700346Y-5450207D01*
X16750346Y-5500207D01*
X16750346Y-7278207D02*
X16800346Y-7228207D01*
X16750346Y-7178207D01*
X16700346Y-7228207D01*
X16750346Y-7278207D01*
X17004346Y-5500207D02*
X17054346Y-5450207D01*
X17004346Y-5400207D01*
X16954346Y-5450207D01*
X17004346Y-5500207D01*
X17004346Y-7278207D02*
X17054346Y-7228207D01*
X17004346Y-7178207D01*
X16954346Y-7228207D01*
X17004346Y-7278207D01*
X17258346Y-5500207D02*
X17308346Y-5450207D01*
X17258346Y-5400207D01*
X17208346Y-5450207D01*
X17258346Y-5500207D01*
X17258346Y-7278207D02*
X17308346Y-7228207D01*
X17258346Y-7178207D01*
X17208346Y-7228207D01*
X17258346Y-7278207D01*
X17512346Y-5500207D02*
X17562346Y-5450207D01*
X17512346Y-5400207D01*
X17462346Y-5450207D01*
X17512346Y-5500207D01*
X17512346Y-7278207D02*
X17562346Y-7228207D01*
X17512346Y-7178207D01*
X17462346Y-7228207D01*
X17512346Y-7278207D01*
X17766346Y-5500207D02*
X17816346Y-5450207D01*
X17766346Y-5400207D01*
X17716346Y-5450207D01*
X17766346Y-5500207D01*
X17766346Y-7278207D02*
X17816346Y-7228207D01*
X17766346Y-7178207D01*
X17716346Y-7228207D01*
X17766346Y-7278207D01*
X18018346Y-13159815D02*
X18068346Y-13109815D01*
X18018346Y-13059815D01*
X17968346Y-13109815D01*
X18018346Y-13159815D01*
X18020346Y-5500207D02*
X18070346Y-5450207D01*
X18020346Y-5400207D01*
X17970346Y-5450207D01*
X18020346Y-5500207D01*
X18020346Y-7278207D02*
X18070346Y-7228207D01*
X18020346Y-7178207D01*
X17970346Y-7228207D01*
X18020346Y-7278207D01*
X18272346Y-13159815D02*
X18322346Y-13109815D01*
X18272346Y-13059815D01*
X18222346Y-13109815D01*
X18272346Y-13159815D01*
X18526346Y-13159815D02*
X18576346Y-13109815D01*
X18526346Y-13059815D01*
X18476346Y-13109815D01*
X18526346Y-13159815D01*
X18923000Y-8495500D02*
X18973000Y-8445500D01*
X18923000Y-8395500D01*
X18873000Y-8445500D01*
X18923000Y-8495500D01*
X18923000Y-8749500D02*
X18973000Y-8699500D01*
X18923000Y-8649500D01*
X18873000Y-8699500D01*
X18923000Y-8749500D01*
X21714500Y-12875000D02*
X21764500Y-12825000D01*
X21714500Y-12775000D01*
X21664500Y-12825000D01*
X21714500Y-12875000D01*
X21714500Y-13129000D02*
X21764500Y-13079000D01*
X21714500Y-13029000D01*
X21664500Y-13079000D01*
X21714500Y-13129000D01*
D17*
X12543400Y-8443207D02*
X12653400Y-8553207D01*
X12653400Y-8443207D02*
X12543400Y-8553207D01*
X12653400Y-8498207D02*
G75*
G03*
X12653400Y-8498207I-55000J0D01*
G01*
X12543400Y-9967207D02*
X12653400Y-10077207D01*
X12653400Y-9967207D02*
X12543400Y-10077207D01*
X12653400Y-10022207D02*
G75*
G03*
X12653400Y-10022207I-55000J0D01*
G01*
X12797400Y-8443207D02*
X12907400Y-8553207D01*
X12907400Y-8443207D02*
X12797400Y-8553207D01*
X12907400Y-8498207D02*
G75*
G03*
X12907400Y-8498207I-55000J0D01*
G01*
X12797400Y-9967207D02*
X12907400Y-10077207D01*
X12907400Y-9967207D02*
X12797400Y-10077207D01*
X12907400Y-10022207D02*
G75*
G03*
X12907400Y-10022207I-55000J0D01*
G01*
X13051400Y-8443207D02*
X13161400Y-8553207D01*
X13161400Y-8443207D02*
X13051400Y-8553207D01*
X13161400Y-8498207D02*
G75*
G03*
X13161400Y-8498207I-55000J0D01*
G01*
X13051400Y-9967207D02*
X13161400Y-10077207D01*
X13161400Y-9967207D02*
X13051400Y-10077207D01*
X13161400Y-10022207D02*
G75*
G03*
X13161400Y-10022207I-55000J0D01*
G01*
X13305400Y-8443207D02*
X13415400Y-8553207D01*
X13415400Y-8443207D02*
X13305400Y-8553207D01*
X13415400Y-8498207D02*
G75*
G03*
X13415400Y-8498207I-55000J0D01*
G01*
X13305400Y-9967207D02*
X13415400Y-10077207D01*
X13415400Y-9967207D02*
X13305400Y-10077207D01*
X13415400Y-10022207D02*
G75*
G03*
X13415400Y-10022207I-55000J0D01*
G01*
X13559400Y-8443207D02*
X13669400Y-8553207D01*
X13669400Y-8443207D02*
X13559400Y-8553207D01*
X13669400Y-8498207D02*
G75*
G03*
X13669400Y-8498207I-55000J0D01*
G01*
X13559400Y-9967207D02*
X13669400Y-10077207D01*
X13669400Y-9967207D02*
X13559400Y-10077207D01*
X13669400Y-10022207D02*
G75*
G03*
X13669400Y-10022207I-55000J0D01*
G01*
X13813400Y-8443207D02*
X13923400Y-8553207D01*
X13923400Y-8443207D02*
X13813400Y-8553207D01*
X13923400Y-8498207D02*
G75*
G03*
X13923400Y-8498207I-55000J0D01*
G01*
X13813400Y-9967207D02*
X13923400Y-10077207D01*
X13923400Y-9967207D02*
X13813400Y-10077207D01*
X13923400Y-10022207D02*
G75*
G03*
X13923400Y-10022207I-55000J0D01*
G01*
X14067400Y-8443207D02*
X14177400Y-8553207D01*
X14177400Y-8443207D02*
X14067400Y-8553207D01*
X14177400Y-8498207D02*
G75*
G03*
X14177400Y-8498207I-55000J0D01*
G01*
X14067400Y-9967207D02*
X14177400Y-10077207D01*
X14177400Y-9967207D02*
X14067400Y-10077207D01*
X14177400Y-10022207D02*
G75*
G03*
X14177400Y-10022207I-55000J0D01*
G01*
X14321400Y-8443207D02*
X14431400Y-8553207D01*
X14431400Y-8443207D02*
X14321400Y-8553207D01*
X14431400Y-8498207D02*
G75*
G03*
X14431400Y-8498207I-55000J0D01*
G01*
X14321400Y-9967207D02*
X14431400Y-10077207D01*
X14431400Y-9967207D02*
X14321400Y-10077207D01*
X14431400Y-10022207D02*
G75*
G03*
X14431400Y-10022207I-55000J0D01*
G01*
X14575400Y-8443207D02*
X14685400Y-8553207D01*
X14685400Y-8443207D02*
X14575400Y-8553207D01*
X14685400Y-8498207D02*
G75*
G03*
X14685400Y-8498207I-55000J0D01*
G01*
X14575400Y-9967207D02*
X14685400Y-10077207D01*
X14685400Y-9967207D02*
X14575400Y-10077207D01*
X14685400Y-10022207D02*
G75*
G03*
X14685400Y-10022207I-55000J0D01*
G01*
X14829400Y-8443207D02*
X14939400Y-8553207D01*
X14939400Y-8443207D02*
X14829400Y-8553207D01*
X14939400Y-8498207D02*
G75*
G03*
X14939400Y-8498207I-55000J0D01*
G01*
X14829400Y-9967207D02*
X14939400Y-10077207D01*
X14939400Y-9967207D02*
X14829400Y-10077207D01*
X14939400Y-10022207D02*
G75*
G03*
X14939400Y-10022207I-55000J0D01*
G01*
X15083400Y-8443207D02*
X15193400Y-8553207D01*
X15193400Y-8443207D02*
X15083400Y-8553207D01*
X15193400Y-8498207D02*
G75*
G03*
X15193400Y-8498207I-55000J0D01*
G01*
X15083400Y-9967207D02*
X15193400Y-10077207D01*
X15193400Y-9967207D02*
X15083400Y-10077207D01*
X15193400Y-10022207D02*
G75*
G03*
X15193400Y-10022207I-55000J0D01*
G01*
X15337400Y-8443207D02*
X15447400Y-8553207D01*
X15447400Y-8443207D02*
X15337400Y-8553207D01*
X15447400Y-8498207D02*
G75*
G03*
X15447400Y-8498207I-55000J0D01*
G01*
X15337400Y-9967207D02*
X15447400Y-10077207D01*
X15447400Y-9967207D02*
X15337400Y-10077207D01*
X15447400Y-10022207D02*
G75*
G03*
X15447400Y-10022207I-55000J0D01*
G01*
X15591400Y-8443207D02*
X15701400Y-8553207D01*
X15701400Y-8443207D02*
X15591400Y-8553207D01*
X15701400Y-8498207D02*
G75*
G03*
X15701400Y-8498207I-55000J0D01*
G01*
X15591400Y-9967207D02*
X15701400Y-10077207D01*
X15701400Y-9967207D02*
X15591400Y-10077207D01*
X15701400Y-10022207D02*
G75*
G03*
X15701400Y-10022207I-55000J0D01*
G01*
X15845400Y-8443207D02*
X15955400Y-8553207D01*
X15955400Y-8443207D02*
X15845400Y-8553207D01*
X15955400Y-8498207D02*
G75*
G03*
X15955400Y-8498207I-55000J0D01*
G01*
X15845400Y-9967207D02*
X15955400Y-10077207D01*
X15955400Y-9967207D02*
X15845400Y-10077207D01*
X15955400Y-10022207D02*
G75*
G03*
X15955400Y-10022207I-55000J0D01*
G01*
X16099400Y-8443207D02*
X16209400Y-8553207D01*
X16209400Y-8443207D02*
X16099400Y-8553207D01*
X16209400Y-8498207D02*
G75*
G03*
X16209400Y-8498207I-55000J0D01*
G01*
X16099400Y-9967207D02*
X16209400Y-10077207D01*
X16209400Y-9967207D02*
X16099400Y-10077207D01*
X16209400Y-10022207D02*
G75*
G03*
X16209400Y-10022207I-55000J0D01*
G01*
X16353400Y-8443207D02*
X16463400Y-8553207D01*
X16463400Y-8443207D02*
X16353400Y-8553207D01*
X16463400Y-8498207D02*
G75*
G03*
X16463400Y-8498207I-55000J0D01*
G01*
X16353400Y-9967207D02*
X16463400Y-10077207D01*
X16463400Y-9967207D02*
X16353400Y-10077207D01*
X16463400Y-10022207D02*
G75*
G03*
X16463400Y-10022207I-55000J0D01*
G01*
X16607400Y-8443207D02*
X16717400Y-8553207D01*
X16717400Y-8443207D02*
X16607400Y-8553207D01*
X16717400Y-8498207D02*
G75*
G03*
X16717400Y-8498207I-55000J0D01*
G01*
X16607400Y-9967207D02*
X16717400Y-10077207D01*
X16717400Y-9967207D02*
X16607400Y-10077207D01*
X16717400Y-10022207D02*
G75*
G03*
X16717400Y-10022207I-55000J0D01*
G01*
X16861400Y-8443207D02*
X16971400Y-8553207D01*
X16971400Y-8443207D02*
X16861400Y-8553207D01*
X16971400Y-8498207D02*
G75*
G03*
X16971400Y-8498207I-55000J0D01*
G01*
X16861400Y-9967207D02*
X16971400Y-10077207D01*
X16971400Y-9967207D02*
X16861400Y-10077207D01*
X16971400Y-10022207D02*
G75*
G03*
X16971400Y-10022207I-55000J0D01*
G01*
X17115400Y-8443207D02*
X17225400Y-8553207D01*
X17225400Y-8443207D02*
X17115400Y-8553207D01*
X17225400Y-8498207D02*
G75*
G03*
X17225400Y-8498207I-55000J0D01*
G01*
X17115400Y-9967207D02*
X17225400Y-10077207D01*
X17225400Y-9967207D02*
X17115400Y-10077207D01*
X17225400Y-10022207D02*
G75*
G03*
X17225400Y-10022207I-55000J0D01*
G01*
X17369400Y-8443207D02*
X17479400Y-8553207D01*
X17479400Y-8443207D02*
X17369400Y-8553207D01*
X17479400Y-8498207D02*
G75*
G03*
X17479400Y-8498207I-55000J0D01*
G01*
X17369400Y-9967207D02*
X17479400Y-10077207D01*
X17479400Y-9967207D02*
X17369400Y-10077207D01*
X17479400Y-10022207D02*
G75*
G03*
X17479400Y-10022207I-55000J0D01*
G01*
X17623400Y-8443207D02*
X17733400Y-8553207D01*
X17733400Y-8443207D02*
X17623400Y-8553207D01*
X17733400Y-8498207D02*
G75*
G03*
X17733400Y-8498207I-55000J0D01*
G01*
X17623400Y-9967207D02*
X17733400Y-10077207D01*
X17733400Y-9967207D02*
X17623400Y-10077207D01*
X17733400Y-10022207D02*
G75*
G03*
X17733400Y-10022207I-55000J0D01*
G01*
X17877400Y-8443207D02*
X17987400Y-8553207D01*
X17987400Y-8443207D02*
X17877400Y-8553207D01*
X17987400Y-8498207D02*
G75*
G03*
X17987400Y-8498207I-55000J0D01*
G01*
X17877400Y-9967207D02*
X17987400Y-10077207D01*
X17987400Y-9967207D02*
X17877400Y-10077207D01*
X17987400Y-10022207D02*
G75*
G03*
X17987400Y-10022207I-55000J0D01*
G01*
X18131400Y-8443207D02*
X18241400Y-8553207D01*
X18241400Y-8443207D02*
X18131400Y-8553207D01*
X18241400Y-8498207D02*
G75*
G03*
X18241400Y-8498207I-55000J0D01*
G01*
X18131400Y-9967207D02*
X18241400Y-10077207D01*
X18241400Y-9967207D02*
X18131400Y-10077207D01*
X18241400Y-10022207D02*
G75*
G03*
X18241400Y-10022207I-55000J0D01*
G01*
X18385400Y-8443207D02*
X18495400Y-8553207D01*
X18495400Y-8443207D02*
X18385400Y-8553207D01*
X18495400Y-8498207D02*
G75*
G03*
X18495400Y-8498207I-55000J0D01*
G01*
X18385400Y-9967207D02*
X18495400Y-10077207D01*
X18495400Y-9967207D02*
X18385400Y-10077207D01*
X18495400Y-10022207D02*
G75*
G03*
X18495400Y-10022207I-55000J0D01*
G01*
D18*
X10746846Y-11686315D02*
X10876846Y-11816315D01*
X10876846Y-11686315D02*
X10746846Y-11816315D01*
X10811846Y-11686315D02*
X10811846Y-11816315D01*
X10746846Y-11751315D02*
X10876846Y-11751315D01*
X10746846Y-12194315D02*
X10876846Y-12324315D01*
X10876846Y-12194315D02*
X10746846Y-12324315D01*
X10811846Y-12194315D02*
X10811846Y-12324315D01*
X10746846Y-12259315D02*
X10876846Y-12259315D01*
X10746846Y-12702315D02*
X10876846Y-12832315D01*
X10876846Y-12702315D02*
X10746846Y-12832315D01*
X10811846Y-12702315D02*
X10811846Y-12832315D01*
X10746846Y-12767315D02*
X10876846Y-12767315D01*
X10746846Y-13210315D02*
X10876846Y-13340315D01*
X10876846Y-13210315D02*
X10746846Y-13340315D01*
X10811846Y-13210315D02*
X10811846Y-13340315D01*
X10746846Y-13275315D02*
X10876846Y-13275315D01*
D19*
X15482500Y-6300400D02*
X15632500Y-6450400D01*
X15632500Y-6300400D02*
X15482500Y-6450400D01*
X15610533Y-6428433D02*
X15610533Y-6322366D01*
X15504466Y-6322366D01*
X15504466Y-6428433D01*
X15610533Y-6428433D01*
D20*
X13749346Y-11847207D02*
X13909346Y-12007207D01*
X13909346Y-11847207D02*
X13749346Y-12007207D01*
X13829346Y-12007207D02*
X13909346Y-11927207D01*
X13829346Y-11847207D01*
X13749346Y-11927207D01*
X13829346Y-12007207D01*
X13749346Y-13371207D02*
X13909346Y-13531207D01*
X13909346Y-13371207D02*
X13749346Y-13531207D01*
X13829346Y-13531207D02*
X13909346Y-13451207D01*
X13829346Y-13371207D01*
X13749346Y-13451207D01*
X13829346Y-13531207D01*
X14638346Y-11847207D02*
X14798346Y-12007207D01*
X14798346Y-11847207D02*
X14638346Y-12007207D01*
X14718346Y-12007207D02*
X14798346Y-11927207D01*
X14718346Y-11847207D01*
X14638346Y-11927207D01*
X14718346Y-12007207D01*
X14638346Y-13371207D02*
X14798346Y-13531207D01*
X14798346Y-13371207D02*
X14638346Y-13531207D01*
X14718346Y-13531207D02*
X14798346Y-13451207D01*
X14718346Y-13371207D01*
X14638346Y-13451207D01*
X14718346Y-13531207D01*
X15527346Y-11847207D02*
X15687346Y-12007207D01*
X15687346Y-11847207D02*
X15527346Y-12007207D01*
X15607346Y-12007207D02*
X15687346Y-11927207D01*
X15607346Y-11847207D01*
X15527346Y-11927207D01*
X15607346Y-12007207D01*
X15527346Y-13371207D02*
X15687346Y-13531207D01*
X15687346Y-13371207D02*
X15527346Y-13531207D01*
X15607346Y-13531207D02*
X15687346Y-13451207D01*
X15607346Y-13371207D01*
X15527346Y-13451207D01*
X15607346Y-13531207D01*
D21*
X13728900Y-5337600D02*
X13728900Y-5507600D01*
X13643900Y-5422600D02*
X13813900Y-5422600D01*
X13813900Y-5422600D02*
G75*
G03*
X13813900Y-5422600I-85000J0D01*
G01*
X13728900Y-6887600D02*
X13728900Y-7057600D01*
X13643900Y-6972600D02*
X13813900Y-6972600D01*
X13813900Y-6972600D02*
G75*
G03*
X13813900Y-6972600I-85000J0D01*
G01*
D22*
X11987279Y-12957248D02*
X11987279Y-12831382D01*
X11861413Y-12831382D01*
X11861413Y-12957248D01*
X11987279Y-12957248D01*
X12013346Y-12894315D02*
G75*
G03*
X12013346Y-12894315I-89000J0D01*
G01*
X11987279Y-13297248D02*
X11987279Y-13171382D01*
X11861413Y-13171382D01*
X11861413Y-13297248D01*
X11987279Y-13297248D01*
X12013346Y-13234315D02*
G75*
G03*
X12013346Y-13234315I-89000J0D01*
G01*
X12979279Y-12957248D02*
X12979279Y-12831382D01*
X12853413Y-12831382D01*
X12853413Y-12957248D01*
X12979279Y-12957248D01*
X13005346Y-12894315D02*
G75*
G03*
X13005346Y-12894315I-89000J0D01*
G01*
X12979279Y-13297248D02*
X12979279Y-13171382D01*
X12853413Y-13171382D01*
X12853413Y-13297248D01*
X12979279Y-13297248D01*
X13005346Y-13234315D02*
G75*
G03*
X13005346Y-13234315I-89000J0D01*
G01*
D23*
X19675900Y-9528600D02*
X19770900Y-9433600D01*
X19675900Y-9338600D01*
X19580900Y-9433600D01*
X19675900Y-9528600D01*
X19770900Y-9433600D02*
G75*
G03*
X19770900Y-9433600I-95000J0D01*
G01*
X19713978Y-5514576D02*
X19808978Y-5419576D01*
X19713978Y-5324576D01*
X19618978Y-5419576D01*
X19713978Y-5514576D01*
X19808978Y-5419576D02*
G75*
G03*
X19808978Y-5419576I-95000J0D01*
G01*
X20530900Y-9528600D02*
X20625900Y-9433600D01*
X20530900Y-9338600D01*
X20435900Y-9433600D01*
X20530900Y-9528600D01*
X20625900Y-9433600D02*
G75*
G03*
X20625900Y-9433600I-95000J0D01*
G01*
X20568978Y-5514576D02*
X20663978Y-5419576D01*
X20568978Y-5324576D01*
X20473978Y-5419576D01*
X20568978Y-5514576D01*
X20663978Y-5419576D02*
G75*
G03*
X20663978Y-5419576I-95000J0D01*
G01*
D11*
X7138519Y-14685576D02*
X7138519Y-14485576D01*
X7186138Y-14485576D01*
X7214709Y-14495100D01*
X7233757Y-14514148D01*
X7243281Y-14533195D01*
X7252805Y-14571290D01*
X7252805Y-14599862D01*
X7243281Y-14637957D01*
X7233757Y-14657005D01*
X7214709Y-14676052D01*
X7186138Y-14685576D01*
X7138519Y-14685576D01*
X7338519Y-14685576D02*
X7338519Y-14552243D01*
X7338519Y-14590338D02*
X7348043Y-14571290D01*
X7357567Y-14561767D01*
X7376614Y-14552243D01*
X7395662Y-14552243D01*
X7462328Y-14685576D02*
X7462328Y-14552243D01*
X7462328Y-14485576D02*
X7452805Y-14495100D01*
X7462328Y-14504624D01*
X7471852Y-14495100D01*
X7462328Y-14485576D01*
X7462328Y-14504624D01*
X7586138Y-14685576D02*
X7567090Y-14676052D01*
X7557567Y-14657005D01*
X7557567Y-14485576D01*
X7690900Y-14685576D02*
X7671852Y-14676052D01*
X7662328Y-14657005D01*
X7662328Y-14485576D01*
X7919471Y-14685576D02*
X7919471Y-14485576D01*
X7986138Y-14628433D01*
X8052805Y-14485576D01*
X8052805Y-14685576D01*
X8233757Y-14685576D02*
X8233757Y-14580814D01*
X8224233Y-14561767D01*
X8205186Y-14552243D01*
X8167090Y-14552243D01*
X8148043Y-14561767D01*
X8233757Y-14676052D02*
X8214709Y-14685576D01*
X8167090Y-14685576D01*
X8148043Y-14676052D01*
X8138519Y-14657005D01*
X8138519Y-14637957D01*
X8148043Y-14618909D01*
X8167090Y-14609386D01*
X8214709Y-14609386D01*
X8233757Y-14599862D01*
X8328995Y-14552243D02*
X8328995Y-14752243D01*
X8328995Y-14561767D02*
X8348043Y-14552243D01*
X8386138Y-14552243D01*
X8405186Y-14561767D01*
X8414710Y-14571290D01*
X8424233Y-14590338D01*
X8424233Y-14647481D01*
X8414710Y-14666528D01*
X8405186Y-14676052D01*
X8386138Y-14685576D01*
X8348043Y-14685576D01*
X8328995Y-14676052D01*
X8509948Y-14666528D02*
X8519471Y-14676052D01*
X8509948Y-14685576D01*
X8500424Y-14676052D01*
X8509948Y-14666528D01*
X8509948Y-14685576D01*
X8509948Y-14561767D02*
X8519471Y-14571290D01*
X8509948Y-14580814D01*
X8500424Y-14571290D01*
X8509948Y-14561767D01*
X8509948Y-14580814D01*
D12*
X6840900Y-14995100D02*
X6880900Y-15035100D01*
X6880900Y-14995100D02*
X6840900Y-15035100D01*
D11*
X7176614Y-14905576D02*
X7195662Y-14905576D01*
X7214709Y-14915100D01*
X7224233Y-14924624D01*
X7233757Y-14943671D01*
X7243281Y-14981767D01*
X7243281Y-15029386D01*
X7233757Y-15067481D01*
X7224233Y-15086528D01*
X7214709Y-15096052D01*
X7195662Y-15105576D01*
X7176614Y-15105576D01*
X7157567Y-15096052D01*
X7148043Y-15086528D01*
X7138519Y-15067481D01*
X7128995Y-15029386D01*
X7128995Y-14981767D01*
X7138519Y-14943671D01*
X7148043Y-14924624D01*
X7157567Y-14915100D01*
X7176614Y-14905576D01*
X7328995Y-15086528D02*
X7338519Y-15096052D01*
X7328995Y-15105576D01*
X7319471Y-15096052D01*
X7328995Y-15086528D01*
X7328995Y-15105576D01*
X7509948Y-14972243D02*
X7509948Y-15105576D01*
X7462328Y-14896052D02*
X7414709Y-15038909D01*
X7538519Y-15038909D01*
X7652805Y-14905576D02*
X7671852Y-14905576D01*
X7690900Y-14915100D01*
X7700424Y-14924624D01*
X7709948Y-14943671D01*
X7719471Y-14981767D01*
X7719471Y-15029386D01*
X7709948Y-15067481D01*
X7700424Y-15086528D01*
X7690900Y-15096052D01*
X7671852Y-15105576D01*
X7652805Y-15105576D01*
X7633757Y-15096052D01*
X7624233Y-15086528D01*
X7614709Y-15067481D01*
X7605186Y-15029386D01*
X7605186Y-14981767D01*
X7614709Y-14943671D01*
X7624233Y-14924624D01*
X7633757Y-14915100D01*
X7652805Y-14905576D01*
X7843281Y-14905576D02*
X7862328Y-14905576D01*
X7881376Y-14915100D01*
X7890900Y-14924624D01*
X7900424Y-14943671D01*
X7909948Y-14981767D01*
X7909948Y-15029386D01*
X7900424Y-15067481D01*
X7890900Y-15086528D01*
X7881376Y-15096052D01*
X7862328Y-15105576D01*
X7843281Y-15105576D01*
X7824233Y-15096052D01*
X7814709Y-15086528D01*
X7805186Y-15067481D01*
X7795662Y-15029386D01*
X7795662Y-14981767D01*
X7805186Y-14943671D01*
X7814709Y-14924624D01*
X7824233Y-14915100D01*
X7843281Y-14905576D01*
X7995662Y-15105576D02*
X7995662Y-14972243D01*
X7995662Y-14991290D02*
X8005186Y-14981767D01*
X8024233Y-14972243D01*
X8052805Y-14972243D01*
X8071852Y-14981767D01*
X8081376Y-15000814D01*
X8081376Y-15105576D01*
X8081376Y-15000814D02*
X8090900Y-14981767D01*
X8109948Y-14972243D01*
X8138519Y-14972243D01*
X8157567Y-14981767D01*
X8167090Y-15000814D01*
X8167090Y-15105576D01*
X8262328Y-15105576D02*
X8262328Y-14972243D01*
X8262328Y-14991290D02*
X8271852Y-14981767D01*
X8290900Y-14972243D01*
X8319471Y-14972243D01*
X8338519Y-14981767D01*
X8348043Y-15000814D01*
X8348043Y-15105576D01*
X8348043Y-15000814D02*
X8357567Y-14981767D01*
X8376614Y-14972243D01*
X8405186Y-14972243D01*
X8424233Y-14981767D01*
X8433757Y-15000814D01*
X8433757Y-15105576D01*
X8824233Y-14896052D02*
X8652805Y-15153195D01*
X9081376Y-14905576D02*
X9100424Y-14905576D01*
X9119471Y-14915100D01*
X9128995Y-14924624D01*
X9138519Y-14943671D01*
X9148043Y-14981767D01*
X9148043Y-15029386D01*
X9138519Y-15067481D01*
X9128995Y-15086528D01*
X9119471Y-15096052D01*
X9100424Y-15105576D01*
X9081376Y-15105576D01*
X9062329Y-15096052D01*
X9052805Y-15086528D01*
X9043281Y-15067481D01*
X9033757Y-15029386D01*
X9033757Y-14981767D01*
X9043281Y-14943671D01*
X9052805Y-14924624D01*
X9062329Y-14915100D01*
X9081376Y-14905576D01*
X9233757Y-15086528D02*
X9243281Y-15096052D01*
X9233757Y-15105576D01*
X9224233Y-15096052D01*
X9233757Y-15086528D01*
X9233757Y-15105576D01*
X9367090Y-14905576D02*
X9386138Y-14905576D01*
X9405186Y-14915100D01*
X9414710Y-14924624D01*
X9424233Y-14943671D01*
X9433757Y-14981767D01*
X9433757Y-15029386D01*
X9424233Y-15067481D01*
X9414710Y-15086528D01*
X9405186Y-15096052D01*
X9386138Y-15105576D01*
X9367090Y-15105576D01*
X9348043Y-15096052D01*
X9338519Y-15086528D01*
X9328995Y-15067481D01*
X9319471Y-15029386D01*
X9319471Y-14981767D01*
X9328995Y-14943671D01*
X9338519Y-14924624D01*
X9348043Y-14915100D01*
X9367090Y-14905576D01*
X9624233Y-15105576D02*
X9509948Y-15105576D01*
X9567090Y-15105576D02*
X9567090Y-14905576D01*
X9548043Y-14934148D01*
X9528995Y-14953195D01*
X9509948Y-14962719D01*
X9805186Y-14905576D02*
X9709948Y-14905576D01*
X9700424Y-15000814D01*
X9709948Y-14991290D01*
X9728995Y-14981767D01*
X9776614Y-14981767D01*
X9795662Y-14991290D01*
X9805186Y-15000814D01*
X9814710Y-15019862D01*
X9814710Y-15067481D01*
X9805186Y-15086528D01*
X9795662Y-15096052D01*
X9776614Y-15105576D01*
X9728995Y-15105576D01*
X9709948Y-15096052D01*
X9700424Y-15086528D01*
X9881376Y-14905576D02*
X10014710Y-14905576D01*
X9928995Y-15105576D01*
X10081376Y-14905576D02*
X10081376Y-14943671D01*
X10157567Y-14905576D02*
X10157567Y-14943671D01*
X10452805Y-15181767D02*
X10443281Y-15172243D01*
X10424233Y-15143671D01*
X10414710Y-15124624D01*
X10405186Y-15096052D01*
X10395662Y-15048433D01*
X10395662Y-15010338D01*
X10405186Y-14962719D01*
X10414710Y-14934148D01*
X10424233Y-14915100D01*
X10443281Y-14886528D01*
X10452805Y-14877005D01*
X10509948Y-14905576D02*
X10633757Y-14905576D01*
X10567090Y-14981767D01*
X10595662Y-14981767D01*
X10614710Y-14991290D01*
X10624233Y-15000814D01*
X10633757Y-15019862D01*
X10633757Y-15067481D01*
X10624233Y-15086528D01*
X10614710Y-15096052D01*
X10595662Y-15105576D01*
X10538519Y-15105576D01*
X10519471Y-15096052D01*
X10509948Y-15086528D01*
X10728995Y-15105576D02*
X10767090Y-15105576D01*
X10786138Y-15096052D01*
X10795662Y-15086528D01*
X10814710Y-15057957D01*
X10824233Y-15019862D01*
X10824233Y-14943671D01*
X10814710Y-14924624D01*
X10805186Y-14915100D01*
X10786138Y-14905576D01*
X10748043Y-14905576D01*
X10728995Y-14915100D01*
X10719471Y-14924624D01*
X10709948Y-14943671D01*
X10709948Y-14991290D01*
X10719471Y-15010338D01*
X10728995Y-15019862D01*
X10748043Y-15029386D01*
X10786138Y-15029386D01*
X10805186Y-15019862D01*
X10814710Y-15010338D01*
X10824233Y-14991290D01*
X11062329Y-15105576D02*
X11062329Y-14905576D01*
X11148043Y-15105576D02*
X11148043Y-15000814D01*
X11138519Y-14981767D01*
X11119471Y-14972243D01*
X11090900Y-14972243D01*
X11071852Y-14981767D01*
X11062329Y-14991290D01*
X11271852Y-15105576D02*
X11252805Y-15096052D01*
X11243281Y-15086528D01*
X11233757Y-15067481D01*
X11233757Y-15010338D01*
X11243281Y-14991290D01*
X11252805Y-14981767D01*
X11271852Y-14972243D01*
X11300424Y-14972243D01*
X11319471Y-14981767D01*
X11328995Y-14991290D01*
X11338519Y-15010338D01*
X11338519Y-15067481D01*
X11328995Y-15086528D01*
X11319471Y-15096052D01*
X11300424Y-15105576D01*
X11271852Y-15105576D01*
X11452805Y-15105576D02*
X11433757Y-15096052D01*
X11424233Y-15077005D01*
X11424233Y-14905576D01*
X11605186Y-15096052D02*
X11586138Y-15105576D01*
X11548043Y-15105576D01*
X11528995Y-15096052D01*
X11519471Y-15077005D01*
X11519471Y-15000814D01*
X11528995Y-14981767D01*
X11548043Y-14972243D01*
X11586138Y-14972243D01*
X11605186Y-14981767D01*
X11614709Y-15000814D01*
X11614709Y-15019862D01*
X11519471Y-15038909D01*
X11690900Y-15096052D02*
X11709948Y-15105576D01*
X11748043Y-15105576D01*
X11767090Y-15096052D01*
X11776614Y-15077005D01*
X11776614Y-15067481D01*
X11767090Y-15048433D01*
X11748043Y-15038909D01*
X11719471Y-15038909D01*
X11700424Y-15029386D01*
X11690900Y-15010338D01*
X11690900Y-15000814D01*
X11700424Y-14981767D01*
X11719471Y-14972243D01*
X11748043Y-14972243D01*
X11767090Y-14981767D01*
X11843281Y-15181767D02*
X11852805Y-15172243D01*
X11871852Y-15143671D01*
X11881376Y-15124624D01*
X11890900Y-15096052D01*
X11900424Y-15048433D01*
X11900424Y-15010338D01*
X11890900Y-14962719D01*
X11881376Y-14934148D01*
X11871852Y-14915100D01*
X11852805Y-14886528D01*
X11843281Y-14877005D01*
D13*
X6880900Y-15279100D02*
G75*
G03*
X6880900Y-15279100I-35000J0D01*
G01*
D11*
X7176614Y-15169576D02*
X7195662Y-15169576D01*
X7214709Y-15179100D01*
X7224233Y-15188624D01*
X7233757Y-15207671D01*
X7243281Y-15245767D01*
X7243281Y-15293386D01*
X7233757Y-15331481D01*
X7224233Y-15350528D01*
X7214709Y-15360052D01*
X7195662Y-15369576D01*
X7176614Y-15369576D01*
X7157567Y-15360052D01*
X7148043Y-15350528D01*
X7138519Y-15331481D01*
X7128995Y-15293386D01*
X7128995Y-15245767D01*
X7138519Y-15207671D01*
X7148043Y-15188624D01*
X7157567Y-15179100D01*
X7176614Y-15169576D01*
X7328995Y-15350528D02*
X7338519Y-15360052D01*
X7328995Y-15369576D01*
X7319471Y-15360052D01*
X7328995Y-15350528D01*
X7328995Y-15369576D01*
X7405186Y-15169576D02*
X7538519Y-15169576D01*
X7452805Y-15369576D01*
X7652805Y-15169576D02*
X7671852Y-15169576D01*
X7690900Y-15179100D01*
X7700424Y-15188624D01*
X7709948Y-15207671D01*
X7719471Y-15245767D01*
X7719471Y-15293386D01*
X7709948Y-15331481D01*
X7700424Y-15350528D01*
X7690900Y-15360052D01*
X7671852Y-15369576D01*
X7652805Y-15369576D01*
X7633757Y-15360052D01*
X7624233Y-15350528D01*
X7614709Y-15331481D01*
X7605186Y-15293386D01*
X7605186Y-15245767D01*
X7614709Y-15207671D01*
X7624233Y-15188624D01*
X7633757Y-15179100D01*
X7652805Y-15169576D01*
X7843281Y-15169576D02*
X7862328Y-15169576D01*
X7881376Y-15179100D01*
X7890900Y-15188624D01*
X7900424Y-15207671D01*
X7909948Y-15245767D01*
X7909948Y-15293386D01*
X7900424Y-15331481D01*
X7890900Y-15350528D01*
X7881376Y-15360052D01*
X7862328Y-15369576D01*
X7843281Y-15369576D01*
X7824233Y-15360052D01*
X7814709Y-15350528D01*
X7805186Y-15331481D01*
X7795662Y-15293386D01*
X7795662Y-15245767D01*
X7805186Y-15207671D01*
X7814709Y-15188624D01*
X7824233Y-15179100D01*
X7843281Y-15169576D01*
X7995662Y-15369576D02*
X7995662Y-15236243D01*
X7995662Y-15255290D02*
X8005186Y-15245767D01*
X8024233Y-15236243D01*
X8052805Y-15236243D01*
X8071852Y-15245767D01*
X8081376Y-15264814D01*
X8081376Y-15369576D01*
X8081376Y-15264814D02*
X8090900Y-15245767D01*
X8109948Y-15236243D01*
X8138519Y-15236243D01*
X8157567Y-15245767D01*
X8167090Y-15264814D01*
X8167090Y-15369576D01*
X8262328Y-15369576D02*
X8262328Y-15236243D01*
X8262328Y-15255290D02*
X8271852Y-15245767D01*
X8290900Y-15236243D01*
X8319471Y-15236243D01*
X8338519Y-15245767D01*
X8348043Y-15264814D01*
X8348043Y-15369576D01*
X8348043Y-15264814D02*
X8357567Y-15245767D01*
X8376614Y-15236243D01*
X8405186Y-15236243D01*
X8424233Y-15245767D01*
X8433757Y-15264814D01*
X8433757Y-15369576D01*
X8824233Y-15160052D02*
X8652805Y-15417195D01*
X9081376Y-15169576D02*
X9100424Y-15169576D01*
X9119471Y-15179100D01*
X9128995Y-15188624D01*
X9138519Y-15207671D01*
X9148043Y-15245767D01*
X9148043Y-15293386D01*
X9138519Y-15331481D01*
X9128995Y-15350528D01*
X9119471Y-15360052D01*
X9100424Y-15369576D01*
X9081376Y-15369576D01*
X9062329Y-15360052D01*
X9052805Y-15350528D01*
X9043281Y-15331481D01*
X9033757Y-15293386D01*
X9033757Y-15245767D01*
X9043281Y-15207671D01*
X9052805Y-15188624D01*
X9062329Y-15179100D01*
X9081376Y-15169576D01*
X9233757Y-15350528D02*
X9243281Y-15360052D01*
X9233757Y-15369576D01*
X9224233Y-15360052D01*
X9233757Y-15350528D01*
X9233757Y-15369576D01*
X9367090Y-15169576D02*
X9386138Y-15169576D01*
X9405186Y-15179100D01*
X9414710Y-15188624D01*
X9424233Y-15207671D01*
X9433757Y-15245767D01*
X9433757Y-15293386D01*
X9424233Y-15331481D01*
X9414710Y-15350528D01*
X9405186Y-15360052D01*
X9386138Y-15369576D01*
X9367090Y-15369576D01*
X9348043Y-15360052D01*
X9338519Y-15350528D01*
X9328995Y-15331481D01*
X9319471Y-15293386D01*
X9319471Y-15245767D01*
X9328995Y-15207671D01*
X9338519Y-15188624D01*
X9348043Y-15179100D01*
X9367090Y-15169576D01*
X9509948Y-15188624D02*
X9519471Y-15179100D01*
X9538519Y-15169576D01*
X9586138Y-15169576D01*
X9605186Y-15179100D01*
X9614710Y-15188624D01*
X9624233Y-15207671D01*
X9624233Y-15226719D01*
X9614710Y-15255290D01*
X9500424Y-15369576D01*
X9624233Y-15369576D01*
X9690900Y-15169576D02*
X9824233Y-15169576D01*
X9738519Y-15369576D01*
X9986138Y-15169576D02*
X9948043Y-15169576D01*
X9928995Y-15179100D01*
X9919471Y-15188624D01*
X9900424Y-15217195D01*
X9890900Y-15255290D01*
X9890900Y-15331481D01*
X9900424Y-15350528D01*
X9909948Y-15360052D01*
X9928995Y-15369576D01*
X9967090Y-15369576D01*
X9986138Y-15360052D01*
X9995662Y-15350528D01*
X10005186Y-15331481D01*
X10005186Y-15283862D01*
X9995662Y-15264814D01*
X9986138Y-15255290D01*
X9967090Y-15245767D01*
X9928995Y-15245767D01*
X9909948Y-15255290D01*
X9900424Y-15264814D01*
X9890900Y-15283862D01*
X10081376Y-15169576D02*
X10081376Y-15207671D01*
X10157567Y-15169576D02*
X10157567Y-15207671D01*
X10452805Y-15445767D02*
X10443281Y-15436243D01*
X10424233Y-15407671D01*
X10414710Y-15388624D01*
X10405186Y-15360052D01*
X10395662Y-15312433D01*
X10395662Y-15274338D01*
X10405186Y-15226719D01*
X10414710Y-15198148D01*
X10424233Y-15179100D01*
X10443281Y-15150528D01*
X10452805Y-15141005D01*
X10624233Y-15169576D02*
X10528995Y-15169576D01*
X10519471Y-15264814D01*
X10528995Y-15255290D01*
X10548043Y-15245767D01*
X10595662Y-15245767D01*
X10614710Y-15255290D01*
X10624233Y-15264814D01*
X10633757Y-15283862D01*
X10633757Y-15331481D01*
X10624233Y-15350528D01*
X10614710Y-15360052D01*
X10595662Y-15369576D01*
X10548043Y-15369576D01*
X10528995Y-15360052D01*
X10519471Y-15350528D01*
X10757567Y-15169576D02*
X10776614Y-15169576D01*
X10795662Y-15179100D01*
X10805186Y-15188624D01*
X10814710Y-15207671D01*
X10824233Y-15245767D01*
X10824233Y-15293386D01*
X10814710Y-15331481D01*
X10805186Y-15350528D01*
X10795662Y-15360052D01*
X10776614Y-15369576D01*
X10757567Y-15369576D01*
X10738519Y-15360052D01*
X10728995Y-15350528D01*
X10719471Y-15331481D01*
X10709948Y-15293386D01*
X10709948Y-15245767D01*
X10719471Y-15207671D01*
X10728995Y-15188624D01*
X10738519Y-15179100D01*
X10757567Y-15169576D01*
X11062329Y-15369576D02*
X11062329Y-15169576D01*
X11148043Y-15369576D02*
X11148043Y-15264814D01*
X11138519Y-15245767D01*
X11119471Y-15236243D01*
X11090900Y-15236243D01*
X11071852Y-15245767D01*
X11062329Y-15255290D01*
X11271852Y-15369576D02*
X11252805Y-15360052D01*
X11243281Y-15350528D01*
X11233757Y-15331481D01*
X11233757Y-15274338D01*
X11243281Y-15255290D01*
X11252805Y-15245767D01*
X11271852Y-15236243D01*
X11300424Y-15236243D01*
X11319471Y-15245767D01*
X11328995Y-15255290D01*
X11338519Y-15274338D01*
X11338519Y-15331481D01*
X11328995Y-15350528D01*
X11319471Y-15360052D01*
X11300424Y-15369576D01*
X11271852Y-15369576D01*
X11452805Y-15369576D02*
X11433757Y-15360052D01*
X11424233Y-15341005D01*
X11424233Y-15169576D01*
X11605186Y-15360052D02*
X11586138Y-15369576D01*
X11548043Y-15369576D01*
X11528995Y-15360052D01*
X11519471Y-15341005D01*
X11519471Y-15264814D01*
X11528995Y-15245767D01*
X11548043Y-15236243D01*
X11586138Y-15236243D01*
X11605186Y-15245767D01*
X11614709Y-15264814D01*
X11614709Y-15283862D01*
X11519471Y-15302909D01*
X11690900Y-15360052D02*
X11709948Y-15369576D01*
X11748043Y-15369576D01*
X11767090Y-15360052D01*
X11776614Y-15341005D01*
X11776614Y-15331481D01*
X11767090Y-15312433D01*
X11748043Y-15302909D01*
X11719471Y-15302909D01*
X11700424Y-15293386D01*
X11690900Y-15274338D01*
X11690900Y-15264814D01*
X11700424Y-15245767D01*
X11719471Y-15236243D01*
X11748043Y-15236243D01*
X11767090Y-15245767D01*
X11843281Y-15445767D02*
X11852805Y-15436243D01*
X11871852Y-15407671D01*
X11881376Y-15388624D01*
X11890900Y-15360052D01*
X11900424Y-15312433D01*
X11900424Y-15274338D01*
X11890900Y-15226719D01*
X11881376Y-15198148D01*
X11871852Y-15179100D01*
X11852805Y-15150528D01*
X11843281Y-15141005D01*
D14*
X6840900Y-15503100D02*
X6840900Y-15583100D01*
X6800900Y-15543100D02*
X6880900Y-15543100D01*
D11*
X7176614Y-15433576D02*
X7195662Y-15433576D01*
X7214709Y-15443100D01*
X7224233Y-15452624D01*
X7233757Y-15471671D01*
X7243281Y-15509767D01*
X7243281Y-15557386D01*
X7233757Y-15595481D01*
X7224233Y-15614528D01*
X7214709Y-15624052D01*
X7195662Y-15633576D01*
X7176614Y-15633576D01*
X7157567Y-15624052D01*
X7148043Y-15614528D01*
X7138519Y-15595481D01*
X7128995Y-15557386D01*
X7128995Y-15509767D01*
X7138519Y-15471671D01*
X7148043Y-15452624D01*
X7157567Y-15443100D01*
X7176614Y-15433576D01*
X7328995Y-15614528D02*
X7338519Y-15624052D01*
X7328995Y-15633576D01*
X7319471Y-15624052D01*
X7328995Y-15614528D01*
X7328995Y-15633576D01*
X7452805Y-15519290D02*
X7433757Y-15509767D01*
X7424233Y-15500243D01*
X7414709Y-15481195D01*
X7414709Y-15471671D01*
X7424233Y-15452624D01*
X7433757Y-15443100D01*
X7452805Y-15433576D01*
X7490900Y-15433576D01*
X7509948Y-15443100D01*
X7519471Y-15452624D01*
X7528995Y-15471671D01*
X7528995Y-15481195D01*
X7519471Y-15500243D01*
X7509948Y-15509767D01*
X7490900Y-15519290D01*
X7452805Y-15519290D01*
X7433757Y-15528814D01*
X7424233Y-15538338D01*
X7414709Y-15557386D01*
X7414709Y-15595481D01*
X7424233Y-15614528D01*
X7433757Y-15624052D01*
X7452805Y-15633576D01*
X7490900Y-15633576D01*
X7509948Y-15624052D01*
X7519471Y-15614528D01*
X7528995Y-15595481D01*
X7528995Y-15557386D01*
X7519471Y-15538338D01*
X7509948Y-15528814D01*
X7490900Y-15519290D01*
X7652805Y-15433576D02*
X7671852Y-15433576D01*
X7690900Y-15443100D01*
X7700424Y-15452624D01*
X7709948Y-15471671D01*
X7719471Y-15509767D01*
X7719471Y-15557386D01*
X7709948Y-15595481D01*
X7700424Y-15614528D01*
X7690900Y-15624052D01*
X7671852Y-15633576D01*
X7652805Y-15633576D01*
X7633757Y-15624052D01*
X7624233Y-15614528D01*
X7614709Y-15595481D01*
X7605186Y-15557386D01*
X7605186Y-15509767D01*
X7614709Y-15471671D01*
X7624233Y-15452624D01*
X7633757Y-15443100D01*
X7652805Y-15433576D01*
X7843281Y-15433576D02*
X7862328Y-15433576D01*
X7881376Y-15443100D01*
X7890900Y-15452624D01*
X7900424Y-15471671D01*
X7909948Y-15509767D01*
X7909948Y-15557386D01*
X7900424Y-15595481D01*
X7890900Y-15614528D01*
X7881376Y-15624052D01*
X7862328Y-15633576D01*
X7843281Y-15633576D01*
X7824233Y-15624052D01*
X7814709Y-15614528D01*
X7805186Y-15595481D01*
X7795662Y-15557386D01*
X7795662Y-15509767D01*
X7805186Y-15471671D01*
X7814709Y-15452624D01*
X7824233Y-15443100D01*
X7843281Y-15433576D01*
X7995662Y-15633576D02*
X7995662Y-15500243D01*
X7995662Y-15519290D02*
X8005186Y-15509767D01*
X8024233Y-15500243D01*
X8052805Y-15500243D01*
X8071852Y-15509767D01*
X8081376Y-15528814D01*
X8081376Y-15633576D01*
X8081376Y-15528814D02*
X8090900Y-15509767D01*
X8109948Y-15500243D01*
X8138519Y-15500243D01*
X8157567Y-15509767D01*
X8167090Y-15528814D01*
X8167090Y-15633576D01*
X8262328Y-15633576D02*
X8262328Y-15500243D01*
X8262328Y-15519290D02*
X8271852Y-15509767D01*
X8290900Y-15500243D01*
X8319471Y-15500243D01*
X8338519Y-15509767D01*
X8348043Y-15528814D01*
X8348043Y-15633576D01*
X8348043Y-15528814D02*
X8357567Y-15509767D01*
X8376614Y-15500243D01*
X8405186Y-15500243D01*
X8424233Y-15509767D01*
X8433757Y-15528814D01*
X8433757Y-15633576D01*
X8824233Y-15424052D02*
X8652805Y-15681195D01*
X9081376Y-15433576D02*
X9100424Y-15433576D01*
X9119471Y-15443100D01*
X9128995Y-15452624D01*
X9138519Y-15471671D01*
X9148043Y-15509767D01*
X9148043Y-15557386D01*
X9138519Y-15595481D01*
X9128995Y-15614528D01*
X9119471Y-15624052D01*
X9100424Y-15633576D01*
X9081376Y-15633576D01*
X9062329Y-15624052D01*
X9052805Y-15614528D01*
X9043281Y-15595481D01*
X9033757Y-15557386D01*
X9033757Y-15509767D01*
X9043281Y-15471671D01*
X9052805Y-15452624D01*
X9062329Y-15443100D01*
X9081376Y-15433576D01*
X9233757Y-15614528D02*
X9243281Y-15624052D01*
X9233757Y-15633576D01*
X9224233Y-15624052D01*
X9233757Y-15614528D01*
X9233757Y-15633576D01*
X9367090Y-15433576D02*
X9386138Y-15433576D01*
X9405186Y-15443100D01*
X9414710Y-15452624D01*
X9424233Y-15471671D01*
X9433757Y-15509767D01*
X9433757Y-15557386D01*
X9424233Y-15595481D01*
X9414710Y-15614528D01*
X9405186Y-15624052D01*
X9386138Y-15633576D01*
X9367090Y-15633576D01*
X9348043Y-15624052D01*
X9338519Y-15614528D01*
X9328995Y-15595481D01*
X9319471Y-15557386D01*
X9319471Y-15509767D01*
X9328995Y-15471671D01*
X9338519Y-15452624D01*
X9348043Y-15443100D01*
X9367090Y-15433576D01*
X9500424Y-15433576D02*
X9624233Y-15433576D01*
X9557567Y-15509767D01*
X9586138Y-15509767D01*
X9605186Y-15519290D01*
X9614710Y-15528814D01*
X9624233Y-15547862D01*
X9624233Y-15595481D01*
X9614710Y-15614528D01*
X9605186Y-15624052D01*
X9586138Y-15633576D01*
X9528995Y-15633576D01*
X9509948Y-15624052D01*
X9500424Y-15614528D01*
X9814710Y-15633576D02*
X9700424Y-15633576D01*
X9757567Y-15633576D02*
X9757567Y-15433576D01*
X9738519Y-15462148D01*
X9719471Y-15481195D01*
X9700424Y-15490719D01*
X9995662Y-15433576D02*
X9900424Y-15433576D01*
X9890900Y-15528814D01*
X9900424Y-15519290D01*
X9919471Y-15509767D01*
X9967090Y-15509767D01*
X9986138Y-15519290D01*
X9995662Y-15528814D01*
X10005186Y-15547862D01*
X10005186Y-15595481D01*
X9995662Y-15614528D01*
X9986138Y-15624052D01*
X9967090Y-15633576D01*
X9919471Y-15633576D01*
X9900424Y-15624052D01*
X9890900Y-15614528D01*
X10081376Y-15433576D02*
X10081376Y-15471671D01*
X10157567Y-15433576D02*
X10157567Y-15471671D01*
X10452805Y-15709767D02*
X10443281Y-15700243D01*
X10424233Y-15671671D01*
X10414710Y-15652624D01*
X10405186Y-15624052D01*
X10395662Y-15576433D01*
X10395662Y-15538338D01*
X10405186Y-15490719D01*
X10414710Y-15462148D01*
X10424233Y-15443100D01*
X10443281Y-15414528D01*
X10452805Y-15405005D01*
X10624233Y-15433576D02*
X10528995Y-15433576D01*
X10519471Y-15528814D01*
X10528995Y-15519290D01*
X10548043Y-15509767D01*
X10595662Y-15509767D01*
X10614710Y-15519290D01*
X10624233Y-15528814D01*
X10633757Y-15547862D01*
X10633757Y-15595481D01*
X10624233Y-15614528D01*
X10614710Y-15624052D01*
X10595662Y-15633576D01*
X10548043Y-15633576D01*
X10528995Y-15624052D01*
X10519471Y-15614528D01*
X10757567Y-15433576D02*
X10776614Y-15433576D01*
X10795662Y-15443100D01*
X10805186Y-15452624D01*
X10814710Y-15471671D01*
X10824233Y-15509767D01*
X10824233Y-15557386D01*
X10814710Y-15595481D01*
X10805186Y-15614528D01*
X10795662Y-15624052D01*
X10776614Y-15633576D01*
X10757567Y-15633576D01*
X10738519Y-15624052D01*
X10728995Y-15614528D01*
X10719471Y-15595481D01*
X10709948Y-15557386D01*
X10709948Y-15509767D01*
X10719471Y-15471671D01*
X10728995Y-15452624D01*
X10738519Y-15443100D01*
X10757567Y-15433576D01*
X11062329Y-15633576D02*
X11062329Y-15433576D01*
X11148043Y-15633576D02*
X11148043Y-15528814D01*
X11138519Y-15509767D01*
X11119471Y-15500243D01*
X11090900Y-15500243D01*
X11071852Y-15509767D01*
X11062329Y-15519290D01*
X11271852Y-15633576D02*
X11252805Y-15624052D01*
X11243281Y-15614528D01*
X11233757Y-15595481D01*
X11233757Y-15538338D01*
X11243281Y-15519290D01*
X11252805Y-15509767D01*
X11271852Y-15500243D01*
X11300424Y-15500243D01*
X11319471Y-15509767D01*
X11328995Y-15519290D01*
X11338519Y-15538338D01*
X11338519Y-15595481D01*
X11328995Y-15614528D01*
X11319471Y-15624052D01*
X11300424Y-15633576D01*
X11271852Y-15633576D01*
X11452805Y-15633576D02*
X11433757Y-15624052D01*
X11424233Y-15605005D01*
X11424233Y-15433576D01*
X11605186Y-15624052D02*
X11586138Y-15633576D01*
X11548043Y-15633576D01*
X11528995Y-15624052D01*
X11519471Y-15605005D01*
X11519471Y-15528814D01*
X11528995Y-15509767D01*
X11548043Y-15500243D01*
X11586138Y-15500243D01*
X11605186Y-15509767D01*
X11614709Y-15528814D01*
X11614709Y-15547862D01*
X11519471Y-15566909D01*
X11690900Y-15624052D02*
X11709948Y-15633576D01*
X11748043Y-15633576D01*
X11767090Y-15624052D01*
X11776614Y-15605005D01*
X11776614Y-15595481D01*
X11767090Y-15576433D01*
X11748043Y-15566909D01*
X11719471Y-15566909D01*
X11700424Y-15557386D01*
X11690900Y-15538338D01*
X11690900Y-15528814D01*
X11700424Y-15509767D01*
X11719471Y-15500243D01*
X11748043Y-15500243D01*
X11767090Y-15509767D01*
X11843281Y-15709767D02*
X11852805Y-15700243D01*
X11871852Y-15671671D01*
X11881376Y-15652624D01*
X11890900Y-15624052D01*
X11900424Y-15576433D01*
X11900424Y-15538338D01*
X11890900Y-15490719D01*
X11881376Y-15462148D01*
X11871852Y-15443100D01*
X11852805Y-15414528D01*
X11843281Y-15405005D01*
D15*
X6867720Y-15838920D02*
X6867720Y-15775280D01*
X6804080Y-15775280D01*
X6804080Y-15838920D01*
X6867720Y-15838920D01*
D11*
X7176614Y-15697576D02*
X7195662Y-15697576D01*
X7214709Y-15707100D01*
X7224233Y-15716624D01*
X7233757Y-15735671D01*
X7243281Y-15773767D01*
X7243281Y-15821386D01*
X7233757Y-15859481D01*
X7224233Y-15878528D01*
X7214709Y-15888052D01*
X7195662Y-15897576D01*
X7176614Y-15897576D01*
X7157567Y-15888052D01*
X7148043Y-15878528D01*
X7138519Y-15859481D01*
X7128995Y-15821386D01*
X7128995Y-15773767D01*
X7138519Y-15735671D01*
X7148043Y-15716624D01*
X7157567Y-15707100D01*
X7176614Y-15697576D01*
X7328995Y-15878528D02*
X7338519Y-15888052D01*
X7328995Y-15897576D01*
X7319471Y-15888052D01*
X7328995Y-15878528D01*
X7328995Y-15897576D01*
X7433757Y-15897576D02*
X7471852Y-15897576D01*
X7490900Y-15888052D01*
X7500424Y-15878528D01*
X7519471Y-15849957D01*
X7528995Y-15811862D01*
X7528995Y-15735671D01*
X7519471Y-15716624D01*
X7509948Y-15707100D01*
X7490900Y-15697576D01*
X7452805Y-15697576D01*
X7433757Y-15707100D01*
X7424233Y-15716624D01*
X7414709Y-15735671D01*
X7414709Y-15783290D01*
X7424233Y-15802338D01*
X7433757Y-15811862D01*
X7452805Y-15821386D01*
X7490900Y-15821386D01*
X7509948Y-15811862D01*
X7519471Y-15802338D01*
X7528995Y-15783290D01*
X7652805Y-15697576D02*
X7671852Y-15697576D01*
X7690900Y-15707100D01*
X7700424Y-15716624D01*
X7709948Y-15735671D01*
X7719471Y-15773767D01*
X7719471Y-15821386D01*
X7709948Y-15859481D01*
X7700424Y-15878528D01*
X7690900Y-15888052D01*
X7671852Y-15897576D01*
X7652805Y-15897576D01*
X7633757Y-15888052D01*
X7624233Y-15878528D01*
X7614709Y-15859481D01*
X7605186Y-15821386D01*
X7605186Y-15773767D01*
X7614709Y-15735671D01*
X7624233Y-15716624D01*
X7633757Y-15707100D01*
X7652805Y-15697576D01*
X7843281Y-15697576D02*
X7862328Y-15697576D01*
X7881376Y-15707100D01*
X7890900Y-15716624D01*
X7900424Y-15735671D01*
X7909948Y-15773767D01*
X7909948Y-15821386D01*
X7900424Y-15859481D01*
X7890900Y-15878528D01*
X7881376Y-15888052D01*
X7862328Y-15897576D01*
X7843281Y-15897576D01*
X7824233Y-15888052D01*
X7814709Y-15878528D01*
X7805186Y-15859481D01*
X7795662Y-15821386D01*
X7795662Y-15773767D01*
X7805186Y-15735671D01*
X7814709Y-15716624D01*
X7824233Y-15707100D01*
X7843281Y-15697576D01*
X7995662Y-15897576D02*
X7995662Y-15764243D01*
X7995662Y-15783290D02*
X8005186Y-15773767D01*
X8024233Y-15764243D01*
X8052805Y-15764243D01*
X8071852Y-15773767D01*
X8081376Y-15792814D01*
X8081376Y-15897576D01*
X8081376Y-15792814D02*
X8090900Y-15773767D01*
X8109948Y-15764243D01*
X8138519Y-15764243D01*
X8157567Y-15773767D01*
X8167090Y-15792814D01*
X8167090Y-15897576D01*
X8262328Y-15897576D02*
X8262328Y-15764243D01*
X8262328Y-15783290D02*
X8271852Y-15773767D01*
X8290900Y-15764243D01*
X8319471Y-15764243D01*
X8338519Y-15773767D01*
X8348043Y-15792814D01*
X8348043Y-15897576D01*
X8348043Y-15792814D02*
X8357567Y-15773767D01*
X8376614Y-15764243D01*
X8405186Y-15764243D01*
X8424233Y-15773767D01*
X8433757Y-15792814D01*
X8433757Y-15897576D01*
X8824233Y-15688052D02*
X8652805Y-15945195D01*
X9081376Y-15697576D02*
X9100424Y-15697576D01*
X9119471Y-15707100D01*
X9128995Y-15716624D01*
X9138519Y-15735671D01*
X9148043Y-15773767D01*
X9148043Y-15821386D01*
X9138519Y-15859481D01*
X9128995Y-15878528D01*
X9119471Y-15888052D01*
X9100424Y-15897576D01*
X9081376Y-15897576D01*
X9062329Y-15888052D01*
X9052805Y-15878528D01*
X9043281Y-15859481D01*
X9033757Y-15821386D01*
X9033757Y-15773767D01*
X9043281Y-15735671D01*
X9052805Y-15716624D01*
X9062329Y-15707100D01*
X9081376Y-15697576D01*
X9233757Y-15878528D02*
X9243281Y-15888052D01*
X9233757Y-15897576D01*
X9224233Y-15888052D01*
X9233757Y-15878528D01*
X9233757Y-15897576D01*
X9367090Y-15697576D02*
X9386138Y-15697576D01*
X9405186Y-15707100D01*
X9414710Y-15716624D01*
X9424233Y-15735671D01*
X9433757Y-15773767D01*
X9433757Y-15821386D01*
X9424233Y-15859481D01*
X9414710Y-15878528D01*
X9405186Y-15888052D01*
X9386138Y-15897576D01*
X9367090Y-15897576D01*
X9348043Y-15888052D01*
X9338519Y-15878528D01*
X9328995Y-15859481D01*
X9319471Y-15821386D01*
X9319471Y-15773767D01*
X9328995Y-15735671D01*
X9338519Y-15716624D01*
X9348043Y-15707100D01*
X9367090Y-15697576D01*
X9500424Y-15697576D02*
X9624233Y-15697576D01*
X9557567Y-15773767D01*
X9586138Y-15773767D01*
X9605186Y-15783290D01*
X9614710Y-15792814D01*
X9624233Y-15811862D01*
X9624233Y-15859481D01*
X9614710Y-15878528D01*
X9605186Y-15888052D01*
X9586138Y-15897576D01*
X9528995Y-15897576D01*
X9509948Y-15888052D01*
X9500424Y-15878528D01*
X9805186Y-15697576D02*
X9709948Y-15697576D01*
X9700424Y-15792814D01*
X9709948Y-15783290D01*
X9728995Y-15773767D01*
X9776614Y-15773767D01*
X9795662Y-15783290D01*
X9805186Y-15792814D01*
X9814710Y-15811862D01*
X9814710Y-15859481D01*
X9805186Y-15878528D01*
X9795662Y-15888052D01*
X9776614Y-15897576D01*
X9728995Y-15897576D01*
X9709948Y-15888052D01*
X9700424Y-15878528D01*
X9986138Y-15764243D02*
X9986138Y-15897576D01*
X9938519Y-15688052D02*
X9890900Y-15830909D01*
X10014710Y-15830909D01*
X10081376Y-15697576D02*
X10081376Y-15735671D01*
X10157567Y-15697576D02*
X10157567Y-15735671D01*
X10452805Y-15973767D02*
X10443281Y-15964243D01*
X10424233Y-15935671D01*
X10414710Y-15916624D01*
X10405186Y-15888052D01*
X10395662Y-15840433D01*
X10395662Y-15802338D01*
X10405186Y-15754719D01*
X10414710Y-15726148D01*
X10424233Y-15707100D01*
X10443281Y-15678528D01*
X10452805Y-15669005D01*
X10633757Y-15897576D02*
X10519471Y-15897576D01*
X10576614Y-15897576D02*
X10576614Y-15697576D01*
X10557567Y-15726148D01*
X10538519Y-15745195D01*
X10519471Y-15754719D01*
X10814710Y-15697576D02*
X10719471Y-15697576D01*
X10709948Y-15792814D01*
X10719471Y-15783290D01*
X10738519Y-15773767D01*
X10786138Y-15773767D01*
X10805186Y-15783290D01*
X10814710Y-15792814D01*
X10824233Y-15811862D01*
X10824233Y-15859481D01*
X10814710Y-15878528D01*
X10805186Y-15888052D01*
X10786138Y-15897576D01*
X10738519Y-15897576D01*
X10719471Y-15888052D01*
X10709948Y-15878528D01*
X11062329Y-15897576D02*
X11062329Y-15697576D01*
X11148043Y-15897576D02*
X11148043Y-15792814D01*
X11138519Y-15773767D01*
X11119471Y-15764243D01*
X11090900Y-15764243D01*
X11071852Y-15773767D01*
X11062329Y-15783290D01*
X11271852Y-15897576D02*
X11252805Y-15888052D01*
X11243281Y-15878528D01*
X11233757Y-15859481D01*
X11233757Y-15802338D01*
X11243281Y-15783290D01*
X11252805Y-15773767D01*
X11271852Y-15764243D01*
X11300424Y-15764243D01*
X11319471Y-15773767D01*
X11328995Y-15783290D01*
X11338519Y-15802338D01*
X11338519Y-15859481D01*
X11328995Y-15878528D01*
X11319471Y-15888052D01*
X11300424Y-15897576D01*
X11271852Y-15897576D01*
X11452805Y-15897576D02*
X11433757Y-15888052D01*
X11424233Y-15869005D01*
X11424233Y-15697576D01*
X11605186Y-15888052D02*
X11586138Y-15897576D01*
X11548043Y-15897576D01*
X11528995Y-15888052D01*
X11519471Y-15869005D01*
X11519471Y-15792814D01*
X11528995Y-15773767D01*
X11548043Y-15764243D01*
X11586138Y-15764243D01*
X11605186Y-15773767D01*
X11614709Y-15792814D01*
X11614709Y-15811862D01*
X11519471Y-15830909D01*
X11690900Y-15888052D02*
X11709948Y-15897576D01*
X11748043Y-15897576D01*
X11767090Y-15888052D01*
X11776614Y-15869005D01*
X11776614Y-15859481D01*
X11767090Y-15840433D01*
X11748043Y-15830909D01*
X11719471Y-15830909D01*
X11700424Y-15821386D01*
X11690900Y-15802338D01*
X11690900Y-15792814D01*
X11700424Y-15773767D01*
X11719471Y-15764243D01*
X11748043Y-15764243D01*
X11767090Y-15773767D01*
X11843281Y-15973767D02*
X11852805Y-15964243D01*
X11871852Y-15935671D01*
X11881376Y-15916624D01*
X11890900Y-15888052D01*
X11900424Y-15840433D01*
X11900424Y-15802338D01*
X11890900Y-15754719D01*
X11881376Y-15726148D01*
X11871852Y-15707100D01*
X11852805Y-15678528D01*
X11843281Y-15669005D01*
D16*
X6830900Y-16121100D02*
X6880900Y-16071100D01*
X6830900Y-16021100D01*
X6780900Y-16071100D01*
X6830900Y-16121100D01*
D11*
X7243281Y-16161576D02*
X7128995Y-16161576D01*
X7186138Y-16161576D02*
X7186138Y-15961576D01*
X7167090Y-15990148D01*
X7148043Y-16009195D01*
X7128995Y-16018719D01*
X7328995Y-16142528D02*
X7338519Y-16152052D01*
X7328995Y-16161576D01*
X7319471Y-16152052D01*
X7328995Y-16142528D01*
X7328995Y-16161576D01*
X7462328Y-15961576D02*
X7481376Y-15961576D01*
X7500424Y-15971100D01*
X7509948Y-15980624D01*
X7519471Y-15999671D01*
X7528995Y-16037767D01*
X7528995Y-16085386D01*
X7519471Y-16123481D01*
X7509948Y-16142528D01*
X7500424Y-16152052D01*
X7481376Y-16161576D01*
X7462328Y-16161576D01*
X7443281Y-16152052D01*
X7433757Y-16142528D01*
X7424233Y-16123481D01*
X7414709Y-16085386D01*
X7414709Y-16037767D01*
X7424233Y-15999671D01*
X7433757Y-15980624D01*
X7443281Y-15971100D01*
X7462328Y-15961576D01*
X7652805Y-15961576D02*
X7671852Y-15961576D01*
X7690900Y-15971100D01*
X7700424Y-15980624D01*
X7709948Y-15999671D01*
X7719471Y-16037767D01*
X7719471Y-16085386D01*
X7709948Y-16123481D01*
X7700424Y-16142528D01*
X7690900Y-16152052D01*
X7671852Y-16161576D01*
X7652805Y-16161576D01*
X7633757Y-16152052D01*
X7624233Y-16142528D01*
X7614709Y-16123481D01*
X7605186Y-16085386D01*
X7605186Y-16037767D01*
X7614709Y-15999671D01*
X7624233Y-15980624D01*
X7633757Y-15971100D01*
X7652805Y-15961576D01*
X7843281Y-15961576D02*
X7862328Y-15961576D01*
X7881376Y-15971100D01*
X7890900Y-15980624D01*
X7900424Y-15999671D01*
X7909948Y-16037767D01*
X7909948Y-16085386D01*
X7900424Y-16123481D01*
X7890900Y-16142528D01*
X7881376Y-16152052D01*
X7862328Y-16161576D01*
X7843281Y-16161576D01*
X7824233Y-16152052D01*
X7814709Y-16142528D01*
X7805186Y-16123481D01*
X7795662Y-16085386D01*
X7795662Y-16037767D01*
X7805186Y-15999671D01*
X7814709Y-15980624D01*
X7824233Y-15971100D01*
X7843281Y-15961576D01*
X7995662Y-16161576D02*
X7995662Y-16028243D01*
X7995662Y-16047290D02*
X8005186Y-16037767D01*
X8024233Y-16028243D01*
X8052805Y-16028243D01*
X8071852Y-16037767D01*
X8081376Y-16056814D01*
X8081376Y-16161576D01*
X8081376Y-16056814D02*
X8090900Y-16037767D01*
X8109948Y-16028243D01*
X8138519Y-16028243D01*
X8157567Y-16037767D01*
X8167090Y-16056814D01*
X8167090Y-16161576D01*
X8262328Y-16161576D02*
X8262328Y-16028243D01*
X8262328Y-16047290D02*
X8271852Y-16037767D01*
X8290900Y-16028243D01*
X8319471Y-16028243D01*
X8338519Y-16037767D01*
X8348043Y-16056814D01*
X8348043Y-16161576D01*
X8348043Y-16056814D02*
X8357567Y-16037767D01*
X8376614Y-16028243D01*
X8405186Y-16028243D01*
X8424233Y-16037767D01*
X8433757Y-16056814D01*
X8433757Y-16161576D01*
X8824233Y-15952052D02*
X8652805Y-16209195D01*
X9081376Y-15961576D02*
X9100424Y-15961576D01*
X9119471Y-15971100D01*
X9128995Y-15980624D01*
X9138519Y-15999671D01*
X9148043Y-16037767D01*
X9148043Y-16085386D01*
X9138519Y-16123481D01*
X9128995Y-16142528D01*
X9119471Y-16152052D01*
X9100424Y-16161576D01*
X9081376Y-16161576D01*
X9062329Y-16152052D01*
X9052805Y-16142528D01*
X9043281Y-16123481D01*
X9033757Y-16085386D01*
X9033757Y-16037767D01*
X9043281Y-15999671D01*
X9052805Y-15980624D01*
X9062329Y-15971100D01*
X9081376Y-15961576D01*
X9233757Y-16142528D02*
X9243281Y-16152052D01*
X9233757Y-16161576D01*
X9224233Y-16152052D01*
X9233757Y-16142528D01*
X9233757Y-16161576D01*
X9367090Y-15961576D02*
X9386138Y-15961576D01*
X9405186Y-15971100D01*
X9414710Y-15980624D01*
X9424233Y-15999671D01*
X9433757Y-16037767D01*
X9433757Y-16085386D01*
X9424233Y-16123481D01*
X9414710Y-16142528D01*
X9405186Y-16152052D01*
X9386138Y-16161576D01*
X9367090Y-16161576D01*
X9348043Y-16152052D01*
X9338519Y-16142528D01*
X9328995Y-16123481D01*
X9319471Y-16085386D01*
X9319471Y-16037767D01*
X9328995Y-15999671D01*
X9338519Y-15980624D01*
X9348043Y-15971100D01*
X9367090Y-15961576D01*
X9500424Y-15961576D02*
X9624233Y-15961576D01*
X9557567Y-16037767D01*
X9586138Y-16037767D01*
X9605186Y-16047290D01*
X9614710Y-16056814D01*
X9624233Y-16075862D01*
X9624233Y-16123481D01*
X9614710Y-16142528D01*
X9605186Y-16152052D01*
X9586138Y-16161576D01*
X9528995Y-16161576D01*
X9509948Y-16152052D01*
X9500424Y-16142528D01*
X9719471Y-16161576D02*
X9757567Y-16161576D01*
X9776614Y-16152052D01*
X9786138Y-16142528D01*
X9805186Y-16113957D01*
X9814710Y-16075862D01*
X9814710Y-15999671D01*
X9805186Y-15980624D01*
X9795662Y-15971100D01*
X9776614Y-15961576D01*
X9738519Y-15961576D01*
X9719471Y-15971100D01*
X9709948Y-15980624D01*
X9700424Y-15999671D01*
X9700424Y-16047290D01*
X9709948Y-16066338D01*
X9719471Y-16075862D01*
X9738519Y-16085386D01*
X9776614Y-16085386D01*
X9795662Y-16075862D01*
X9805186Y-16066338D01*
X9814710Y-16047290D01*
X9986138Y-16028243D02*
X9986138Y-16161576D01*
X9938519Y-15952052D02*
X9890900Y-16094909D01*
X10014710Y-16094909D01*
X10081376Y-15961576D02*
X10081376Y-15999671D01*
X10157567Y-15961576D02*
X10157567Y-15999671D01*
X10452805Y-16237767D02*
X10443281Y-16228243D01*
X10424233Y-16199671D01*
X10414710Y-16180624D01*
X10405186Y-16152052D01*
X10395662Y-16104433D01*
X10395662Y-16066338D01*
X10405186Y-16018719D01*
X10414710Y-15990148D01*
X10424233Y-15971100D01*
X10443281Y-15942528D01*
X10452805Y-15933005D01*
X10509948Y-15961576D02*
X10633757Y-15961576D01*
X10567090Y-16037767D01*
X10595662Y-16037767D01*
X10614710Y-16047290D01*
X10624233Y-16056814D01*
X10633757Y-16075862D01*
X10633757Y-16123481D01*
X10624233Y-16142528D01*
X10614710Y-16152052D01*
X10595662Y-16161576D01*
X10538519Y-16161576D01*
X10519471Y-16152052D01*
X10509948Y-16142528D01*
X10805186Y-16028243D02*
X10805186Y-16161576D01*
X10757567Y-15952052D02*
X10709948Y-16094909D01*
X10833757Y-16094909D01*
X11062329Y-16161576D02*
X11062329Y-15961576D01*
X11148043Y-16161576D02*
X11148043Y-16056814D01*
X11138519Y-16037767D01*
X11119471Y-16028243D01*
X11090900Y-16028243D01*
X11071852Y-16037767D01*
X11062329Y-16047290D01*
X11271852Y-16161576D02*
X11252805Y-16152052D01*
X11243281Y-16142528D01*
X11233757Y-16123481D01*
X11233757Y-16066338D01*
X11243281Y-16047290D01*
X11252805Y-16037767D01*
X11271852Y-16028243D01*
X11300424Y-16028243D01*
X11319471Y-16037767D01*
X11328995Y-16047290D01*
X11338519Y-16066338D01*
X11338519Y-16123481D01*
X11328995Y-16142528D01*
X11319471Y-16152052D01*
X11300424Y-16161576D01*
X11271852Y-16161576D01*
X11452805Y-16161576D02*
X11433757Y-16152052D01*
X11424233Y-16133005D01*
X11424233Y-15961576D01*
X11605186Y-16152052D02*
X11586138Y-16161576D01*
X11548043Y-16161576D01*
X11528995Y-16152052D01*
X11519471Y-16133005D01*
X11519471Y-16056814D01*
X11528995Y-16037767D01*
X11548043Y-16028243D01*
X11586138Y-16028243D01*
X11605186Y-16037767D01*
X11614709Y-16056814D01*
X11614709Y-16075862D01*
X11519471Y-16094909D01*
X11690900Y-16152052D02*
X11709948Y-16161576D01*
X11748043Y-16161576D01*
X11767090Y-16152052D01*
X11776614Y-16133005D01*
X11776614Y-16123481D01*
X11767090Y-16104433D01*
X11748043Y-16094909D01*
X11719471Y-16094909D01*
X11700424Y-16085386D01*
X11690900Y-16066338D01*
X11690900Y-16056814D01*
X11700424Y-16037767D01*
X11719471Y-16028243D01*
X11748043Y-16028243D01*
X11767090Y-16037767D01*
X11843281Y-16237767D02*
X11852805Y-16228243D01*
X11871852Y-16199671D01*
X11881376Y-16180624D01*
X11890900Y-16152052D01*
X11900424Y-16104433D01*
X11900424Y-16066338D01*
X11890900Y-16018719D01*
X11881376Y-15990148D01*
X11871852Y-15971100D01*
X11852805Y-15942528D01*
X11843281Y-15933005D01*
D17*
X6770900Y-16280100D02*
X6880900Y-16390100D01*
X6880900Y-16280100D02*
X6770900Y-16390100D01*
X6880900Y-16335100D02*
G75*
G03*
X6880900Y-16335100I-55000J0D01*
G01*
D11*
X7243281Y-16425576D02*
X7128995Y-16425576D01*
X7186138Y-16425576D02*
X7186138Y-16225576D01*
X7167090Y-16254148D01*
X7148043Y-16273195D01*
X7128995Y-16282719D01*
X7328995Y-16406528D02*
X7338519Y-16416052D01*
X7328995Y-16425576D01*
X7319471Y-16416052D01*
X7328995Y-16406528D01*
X7328995Y-16425576D01*
X7528995Y-16425576D02*
X7414709Y-16425576D01*
X7471852Y-16425576D02*
X7471852Y-16225576D01*
X7452805Y-16254148D01*
X7433757Y-16273195D01*
X7414709Y-16282719D01*
X7652805Y-16225576D02*
X7671852Y-16225576D01*
X7690900Y-16235100D01*
X7700424Y-16244624D01*
X7709948Y-16263671D01*
X7719471Y-16301767D01*
X7719471Y-16349386D01*
X7709948Y-16387481D01*
X7700424Y-16406528D01*
X7690900Y-16416052D01*
X7671852Y-16425576D01*
X7652805Y-16425576D01*
X7633757Y-16416052D01*
X7624233Y-16406528D01*
X7614709Y-16387481D01*
X7605186Y-16349386D01*
X7605186Y-16301767D01*
X7614709Y-16263671D01*
X7624233Y-16244624D01*
X7633757Y-16235100D01*
X7652805Y-16225576D01*
X7843281Y-16225576D02*
X7862328Y-16225576D01*
X7881376Y-16235100D01*
X7890900Y-16244624D01*
X7900424Y-16263671D01*
X7909948Y-16301767D01*
X7909948Y-16349386D01*
X7900424Y-16387481D01*
X7890900Y-16406528D01*
X7881376Y-16416052D01*
X7862328Y-16425576D01*
X7843281Y-16425576D01*
X7824233Y-16416052D01*
X7814709Y-16406528D01*
X7805186Y-16387481D01*
X7795662Y-16349386D01*
X7795662Y-16301767D01*
X7805186Y-16263671D01*
X7814709Y-16244624D01*
X7824233Y-16235100D01*
X7843281Y-16225576D01*
X7995662Y-16425576D02*
X7995662Y-16292243D01*
X7995662Y-16311290D02*
X8005186Y-16301767D01*
X8024233Y-16292243D01*
X8052805Y-16292243D01*
X8071852Y-16301767D01*
X8081376Y-16320814D01*
X8081376Y-16425576D01*
X8081376Y-16320814D02*
X8090900Y-16301767D01*
X8109948Y-16292243D01*
X8138519Y-16292243D01*
X8157567Y-16301767D01*
X8167090Y-16320814D01*
X8167090Y-16425576D01*
X8262328Y-16425576D02*
X8262328Y-16292243D01*
X8262328Y-16311290D02*
X8271852Y-16301767D01*
X8290900Y-16292243D01*
X8319471Y-16292243D01*
X8338519Y-16301767D01*
X8348043Y-16320814D01*
X8348043Y-16425576D01*
X8348043Y-16320814D02*
X8357567Y-16301767D01*
X8376614Y-16292243D01*
X8405186Y-16292243D01*
X8424233Y-16301767D01*
X8433757Y-16320814D01*
X8433757Y-16425576D01*
X8824233Y-16216052D02*
X8652805Y-16473195D01*
X9081376Y-16225576D02*
X9100424Y-16225576D01*
X9119471Y-16235100D01*
X9128995Y-16244624D01*
X9138519Y-16263671D01*
X9148043Y-16301767D01*
X9148043Y-16349386D01*
X9138519Y-16387481D01*
X9128995Y-16406528D01*
X9119471Y-16416052D01*
X9100424Y-16425576D01*
X9081376Y-16425576D01*
X9062329Y-16416052D01*
X9052805Y-16406528D01*
X9043281Y-16387481D01*
X9033757Y-16349386D01*
X9033757Y-16301767D01*
X9043281Y-16263671D01*
X9052805Y-16244624D01*
X9062329Y-16235100D01*
X9081376Y-16225576D01*
X9233757Y-16406528D02*
X9243281Y-16416052D01*
X9233757Y-16425576D01*
X9224233Y-16416052D01*
X9233757Y-16406528D01*
X9233757Y-16425576D01*
X9367090Y-16225576D02*
X9386138Y-16225576D01*
X9405186Y-16235100D01*
X9414710Y-16244624D01*
X9424233Y-16263671D01*
X9433757Y-16301767D01*
X9433757Y-16349386D01*
X9424233Y-16387481D01*
X9414710Y-16406528D01*
X9405186Y-16416052D01*
X9386138Y-16425576D01*
X9367090Y-16425576D01*
X9348043Y-16416052D01*
X9338519Y-16406528D01*
X9328995Y-16387481D01*
X9319471Y-16349386D01*
X9319471Y-16301767D01*
X9328995Y-16263671D01*
X9338519Y-16244624D01*
X9348043Y-16235100D01*
X9367090Y-16225576D01*
X9605186Y-16292243D02*
X9605186Y-16425576D01*
X9557567Y-16216052D02*
X9509948Y-16358909D01*
X9633757Y-16358909D01*
X9690900Y-16225576D02*
X9814710Y-16225576D01*
X9748043Y-16301767D01*
X9776614Y-16301767D01*
X9795662Y-16311290D01*
X9805186Y-16320814D01*
X9814710Y-16339862D01*
X9814710Y-16387481D01*
X9805186Y-16406528D01*
X9795662Y-16416052D01*
X9776614Y-16425576D01*
X9719471Y-16425576D01*
X9700424Y-16416052D01*
X9690900Y-16406528D01*
X9881376Y-16225576D02*
X10005186Y-16225576D01*
X9938519Y-16301767D01*
X9967090Y-16301767D01*
X9986138Y-16311290D01*
X9995662Y-16320814D01*
X10005186Y-16339862D01*
X10005186Y-16387481D01*
X9995662Y-16406528D01*
X9986138Y-16416052D01*
X9967090Y-16425576D01*
X9909948Y-16425576D01*
X9890900Y-16416052D01*
X9881376Y-16406528D01*
X10081376Y-16225576D02*
X10081376Y-16263671D01*
X10157567Y-16225576D02*
X10157567Y-16263671D01*
X10452805Y-16501767D02*
X10443281Y-16492243D01*
X10424233Y-16463671D01*
X10414710Y-16444624D01*
X10405186Y-16416052D01*
X10395662Y-16368433D01*
X10395662Y-16330338D01*
X10405186Y-16282719D01*
X10414710Y-16254148D01*
X10424233Y-16235100D01*
X10443281Y-16206528D01*
X10452805Y-16197005D01*
X10614710Y-16292243D02*
X10614710Y-16425576D01*
X10567090Y-16216052D02*
X10519471Y-16358909D01*
X10643281Y-16358909D01*
X10748043Y-16311290D02*
X10728995Y-16301767D01*
X10719471Y-16292243D01*
X10709948Y-16273195D01*
X10709948Y-16263671D01*
X10719471Y-16244624D01*
X10728995Y-16235100D01*
X10748043Y-16225576D01*
X10786138Y-16225576D01*
X10805186Y-16235100D01*
X10814710Y-16244624D01*
X10824233Y-16263671D01*
X10824233Y-16273195D01*
X10814710Y-16292243D01*
X10805186Y-16301767D01*
X10786138Y-16311290D01*
X10748043Y-16311290D01*
X10728995Y-16320814D01*
X10719471Y-16330338D01*
X10709948Y-16349386D01*
X10709948Y-16387481D01*
X10719471Y-16406528D01*
X10728995Y-16416052D01*
X10748043Y-16425576D01*
X10786138Y-16425576D01*
X10805186Y-16416052D01*
X10814710Y-16406528D01*
X10824233Y-16387481D01*
X10824233Y-16349386D01*
X10814710Y-16330338D01*
X10805186Y-16320814D01*
X10786138Y-16311290D01*
X11062329Y-16425576D02*
X11062329Y-16225576D01*
X11148043Y-16425576D02*
X11148043Y-16320814D01*
X11138519Y-16301767D01*
X11119471Y-16292243D01*
X11090900Y-16292243D01*
X11071852Y-16301767D01*
X11062329Y-16311290D01*
X11271852Y-16425576D02*
X11252805Y-16416052D01*
X11243281Y-16406528D01*
X11233757Y-16387481D01*
X11233757Y-16330338D01*
X11243281Y-16311290D01*
X11252805Y-16301767D01*
X11271852Y-16292243D01*
X11300424Y-16292243D01*
X11319471Y-16301767D01*
X11328995Y-16311290D01*
X11338519Y-16330338D01*
X11338519Y-16387481D01*
X11328995Y-16406528D01*
X11319471Y-16416052D01*
X11300424Y-16425576D01*
X11271852Y-16425576D01*
X11452805Y-16425576D02*
X11433757Y-16416052D01*
X11424233Y-16397005D01*
X11424233Y-16225576D01*
X11605186Y-16416052D02*
X11586138Y-16425576D01*
X11548043Y-16425576D01*
X11528995Y-16416052D01*
X11519471Y-16397005D01*
X11519471Y-16320814D01*
X11528995Y-16301767D01*
X11548043Y-16292243D01*
X11586138Y-16292243D01*
X11605186Y-16301767D01*
X11614709Y-16320814D01*
X11614709Y-16339862D01*
X11519471Y-16358909D01*
X11690900Y-16416052D02*
X11709948Y-16425576D01*
X11748043Y-16425576D01*
X11767090Y-16416052D01*
X11776614Y-16397005D01*
X11776614Y-16387481D01*
X11767090Y-16368433D01*
X11748043Y-16358909D01*
X11719471Y-16358909D01*
X11700424Y-16349386D01*
X11690900Y-16330338D01*
X11690900Y-16320814D01*
X11700424Y-16301767D01*
X11719471Y-16292243D01*
X11748043Y-16292243D01*
X11767090Y-16301767D01*
X11843281Y-16501767D02*
X11852805Y-16492243D01*
X11871852Y-16463671D01*
X11881376Y-16444624D01*
X11890900Y-16416052D01*
X11900424Y-16368433D01*
X11900424Y-16330338D01*
X11890900Y-16282719D01*
X11881376Y-16254148D01*
X11871852Y-16235100D01*
X11852805Y-16206528D01*
X11843281Y-16197005D01*
D18*
X6750900Y-16534100D02*
X6880900Y-16664100D01*
X6880900Y-16534100D02*
X6750900Y-16664100D01*
X6815900Y-16534100D02*
X6815900Y-16664100D01*
X6750900Y-16599100D02*
X6880900Y-16599100D01*
D11*
X7243281Y-16689576D02*
X7128995Y-16689576D01*
X7186138Y-16689576D02*
X7186138Y-16489576D01*
X7167090Y-16518148D01*
X7148043Y-16537195D01*
X7128995Y-16546719D01*
X7328995Y-16670528D02*
X7338519Y-16680052D01*
X7328995Y-16689576D01*
X7319471Y-16680052D01*
X7328995Y-16670528D01*
X7328995Y-16689576D01*
X7405186Y-16489576D02*
X7528995Y-16489576D01*
X7462328Y-16565767D01*
X7490900Y-16565767D01*
X7509948Y-16575290D01*
X7519471Y-16584814D01*
X7528995Y-16603862D01*
X7528995Y-16651481D01*
X7519471Y-16670528D01*
X7509948Y-16680052D01*
X7490900Y-16689576D01*
X7433757Y-16689576D01*
X7414709Y-16680052D01*
X7405186Y-16670528D01*
X7652805Y-16489576D02*
X7671852Y-16489576D01*
X7690900Y-16499100D01*
X7700424Y-16508624D01*
X7709948Y-16527671D01*
X7719471Y-16565767D01*
X7719471Y-16613386D01*
X7709948Y-16651481D01*
X7700424Y-16670528D01*
X7690900Y-16680052D01*
X7671852Y-16689576D01*
X7652805Y-16689576D01*
X7633757Y-16680052D01*
X7624233Y-16670528D01*
X7614709Y-16651481D01*
X7605186Y-16613386D01*
X7605186Y-16565767D01*
X7614709Y-16527671D01*
X7624233Y-16508624D01*
X7633757Y-16499100D01*
X7652805Y-16489576D01*
X7843281Y-16489576D02*
X7862328Y-16489576D01*
X7881376Y-16499100D01*
X7890900Y-16508624D01*
X7900424Y-16527671D01*
X7909948Y-16565767D01*
X7909948Y-16613386D01*
X7900424Y-16651481D01*
X7890900Y-16670528D01*
X7881376Y-16680052D01*
X7862328Y-16689576D01*
X7843281Y-16689576D01*
X7824233Y-16680052D01*
X7814709Y-16670528D01*
X7805186Y-16651481D01*
X7795662Y-16613386D01*
X7795662Y-16565767D01*
X7805186Y-16527671D01*
X7814709Y-16508624D01*
X7824233Y-16499100D01*
X7843281Y-16489576D01*
X7995662Y-16689576D02*
X7995662Y-16556243D01*
X7995662Y-16575290D02*
X8005186Y-16565767D01*
X8024233Y-16556243D01*
X8052805Y-16556243D01*
X8071852Y-16565767D01*
X8081376Y-16584814D01*
X8081376Y-16689576D01*
X8081376Y-16584814D02*
X8090900Y-16565767D01*
X8109948Y-16556243D01*
X8138519Y-16556243D01*
X8157567Y-16565767D01*
X8167090Y-16584814D01*
X8167090Y-16689576D01*
X8262328Y-16689576D02*
X8262328Y-16556243D01*
X8262328Y-16575290D02*
X8271852Y-16565767D01*
X8290900Y-16556243D01*
X8319471Y-16556243D01*
X8338519Y-16565767D01*
X8348043Y-16584814D01*
X8348043Y-16689576D01*
X8348043Y-16584814D02*
X8357567Y-16565767D01*
X8376614Y-16556243D01*
X8405186Y-16556243D01*
X8424233Y-16565767D01*
X8433757Y-16584814D01*
X8433757Y-16689576D01*
X8824233Y-16480052D02*
X8652805Y-16737195D01*
X9081376Y-16489576D02*
X9100424Y-16489576D01*
X9119471Y-16499100D01*
X9128995Y-16508624D01*
X9138519Y-16527671D01*
X9148043Y-16565767D01*
X9148043Y-16613386D01*
X9138519Y-16651481D01*
X9128995Y-16670528D01*
X9119471Y-16680052D01*
X9100424Y-16689576D01*
X9081376Y-16689576D01*
X9062329Y-16680052D01*
X9052805Y-16670528D01*
X9043281Y-16651481D01*
X9033757Y-16613386D01*
X9033757Y-16565767D01*
X9043281Y-16527671D01*
X9052805Y-16508624D01*
X9062329Y-16499100D01*
X9081376Y-16489576D01*
X9233757Y-16670528D02*
X9243281Y-16680052D01*
X9233757Y-16689576D01*
X9224233Y-16680052D01*
X9233757Y-16670528D01*
X9233757Y-16689576D01*
X9367090Y-16489576D02*
X9386138Y-16489576D01*
X9405186Y-16499100D01*
X9414710Y-16508624D01*
X9424233Y-16527671D01*
X9433757Y-16565767D01*
X9433757Y-16613386D01*
X9424233Y-16651481D01*
X9414710Y-16670528D01*
X9405186Y-16680052D01*
X9386138Y-16689576D01*
X9367090Y-16689576D01*
X9348043Y-16680052D01*
X9338519Y-16670528D01*
X9328995Y-16651481D01*
X9319471Y-16613386D01*
X9319471Y-16565767D01*
X9328995Y-16527671D01*
X9338519Y-16508624D01*
X9348043Y-16499100D01*
X9367090Y-16489576D01*
X9614710Y-16489576D02*
X9519471Y-16489576D01*
X9509948Y-16584814D01*
X9519471Y-16575290D01*
X9538519Y-16565767D01*
X9586138Y-16565767D01*
X9605186Y-16575290D01*
X9614710Y-16584814D01*
X9624233Y-16603862D01*
X9624233Y-16651481D01*
X9614710Y-16670528D01*
X9605186Y-16680052D01*
X9586138Y-16689576D01*
X9538519Y-16689576D01*
X9519471Y-16680052D01*
X9509948Y-16670528D01*
X9814710Y-16689576D02*
X9700424Y-16689576D01*
X9757567Y-16689576D02*
X9757567Y-16489576D01*
X9738519Y-16518148D01*
X9719471Y-16537195D01*
X9700424Y-16546719D01*
X9890900Y-16508624D02*
X9900424Y-16499100D01*
X9919471Y-16489576D01*
X9967090Y-16489576D01*
X9986138Y-16499100D01*
X9995662Y-16508624D01*
X10005186Y-16527671D01*
X10005186Y-16546719D01*
X9995662Y-16575290D01*
X9881376Y-16689576D01*
X10005186Y-16689576D01*
X10081376Y-16489576D02*
X10081376Y-16527671D01*
X10157567Y-16489576D02*
X10157567Y-16527671D01*
X10452805Y-16765767D02*
X10443281Y-16756243D01*
X10424233Y-16727671D01*
X10414710Y-16708624D01*
X10405186Y-16680052D01*
X10395662Y-16632433D01*
X10395662Y-16594338D01*
X10405186Y-16546719D01*
X10414710Y-16518148D01*
X10424233Y-16499100D01*
X10443281Y-16470528D01*
X10452805Y-16461005D01*
X10614710Y-16556243D02*
X10614710Y-16689576D01*
X10567090Y-16480052D02*
X10519471Y-16622909D01*
X10643281Y-16622909D01*
X10871852Y-16689576D02*
X10871852Y-16489576D01*
X10957567Y-16689576D02*
X10957567Y-16584814D01*
X10948043Y-16565767D01*
X10928995Y-16556243D01*
X10900424Y-16556243D01*
X10881376Y-16565767D01*
X10871852Y-16575290D01*
X11081376Y-16689576D02*
X11062329Y-16680052D01*
X11052805Y-16670528D01*
X11043281Y-16651481D01*
X11043281Y-16594338D01*
X11052805Y-16575290D01*
X11062329Y-16565767D01*
X11081376Y-16556243D01*
X11109948Y-16556243D01*
X11128995Y-16565767D01*
X11138519Y-16575290D01*
X11148043Y-16594338D01*
X11148043Y-16651481D01*
X11138519Y-16670528D01*
X11128995Y-16680052D01*
X11109948Y-16689576D01*
X11081376Y-16689576D01*
X11262328Y-16689576D02*
X11243281Y-16680052D01*
X11233757Y-16661005D01*
X11233757Y-16489576D01*
X11414709Y-16680052D02*
X11395662Y-16689576D01*
X11357567Y-16689576D01*
X11338519Y-16680052D01*
X11328995Y-16661005D01*
X11328995Y-16584814D01*
X11338519Y-16565767D01*
X11357567Y-16556243D01*
X11395662Y-16556243D01*
X11414709Y-16565767D01*
X11424233Y-16584814D01*
X11424233Y-16603862D01*
X11328995Y-16622909D01*
X11500424Y-16680052D02*
X11519471Y-16689576D01*
X11557567Y-16689576D01*
X11576614Y-16680052D01*
X11586138Y-16661005D01*
X11586138Y-16651481D01*
X11576614Y-16632433D01*
X11557567Y-16622909D01*
X11528995Y-16622909D01*
X11509948Y-16613386D01*
X11500424Y-16594338D01*
X11500424Y-16584814D01*
X11509948Y-16565767D01*
X11528995Y-16556243D01*
X11557567Y-16556243D01*
X11576614Y-16565767D01*
X11652805Y-16765767D02*
X11662328Y-16756243D01*
X11681376Y-16727671D01*
X11690900Y-16708624D01*
X11700424Y-16680052D01*
X11709948Y-16632433D01*
X11709948Y-16594338D01*
X11700424Y-16546719D01*
X11690900Y-16518148D01*
X11681376Y-16499100D01*
X11662328Y-16470528D01*
X11652805Y-16461005D01*
D19*
X6730900Y-16788100D02*
X6880900Y-16938100D01*
X6880900Y-16788100D02*
X6730900Y-16938100D01*
X6858933Y-16916134D02*
X6858933Y-16810067D01*
X6752866Y-16810067D01*
X6752866Y-16916134D01*
X6858933Y-16916134D01*
D11*
X7243281Y-16953576D02*
X7128995Y-16953576D01*
X7186138Y-16953576D02*
X7186138Y-16753576D01*
X7167090Y-16782148D01*
X7148043Y-16801195D01*
X7128995Y-16810719D01*
X7328995Y-16934529D02*
X7338519Y-16944052D01*
X7328995Y-16953576D01*
X7319471Y-16944052D01*
X7328995Y-16934529D01*
X7328995Y-16953576D01*
X7519471Y-16753576D02*
X7424233Y-16753576D01*
X7414709Y-16848814D01*
X7424233Y-16839290D01*
X7443281Y-16829767D01*
X7490900Y-16829767D01*
X7509948Y-16839290D01*
X7519471Y-16848814D01*
X7528995Y-16867862D01*
X7528995Y-16915481D01*
X7519471Y-16934529D01*
X7509948Y-16944052D01*
X7490900Y-16953576D01*
X7443281Y-16953576D01*
X7424233Y-16944052D01*
X7414709Y-16934529D01*
X7652805Y-16753576D02*
X7671852Y-16753576D01*
X7690900Y-16763100D01*
X7700424Y-16772624D01*
X7709948Y-16791671D01*
X7719471Y-16829767D01*
X7719471Y-16877386D01*
X7709948Y-16915481D01*
X7700424Y-16934529D01*
X7690900Y-16944052D01*
X7671852Y-16953576D01*
X7652805Y-16953576D01*
X7633757Y-16944052D01*
X7624233Y-16934529D01*
X7614709Y-16915481D01*
X7605186Y-16877386D01*
X7605186Y-16829767D01*
X7614709Y-16791671D01*
X7624233Y-16772624D01*
X7633757Y-16763100D01*
X7652805Y-16753576D01*
X7843281Y-16753576D02*
X7862328Y-16753576D01*
X7881376Y-16763100D01*
X7890900Y-16772624D01*
X7900424Y-16791671D01*
X7909948Y-16829767D01*
X7909948Y-16877386D01*
X7900424Y-16915481D01*
X7890900Y-16934529D01*
X7881376Y-16944052D01*
X7862328Y-16953576D01*
X7843281Y-16953576D01*
X7824233Y-16944052D01*
X7814709Y-16934529D01*
X7805186Y-16915481D01*
X7795662Y-16877386D01*
X7795662Y-16829767D01*
X7805186Y-16791671D01*
X7814709Y-16772624D01*
X7824233Y-16763100D01*
X7843281Y-16753576D01*
X7995662Y-16953576D02*
X7995662Y-16820243D01*
X7995662Y-16839290D02*
X8005186Y-16829767D01*
X8024233Y-16820243D01*
X8052805Y-16820243D01*
X8071852Y-16829767D01*
X8081376Y-16848814D01*
X8081376Y-16953576D01*
X8081376Y-16848814D02*
X8090900Y-16829767D01*
X8109948Y-16820243D01*
X8138519Y-16820243D01*
X8157567Y-16829767D01*
X8167090Y-16848814D01*
X8167090Y-16953576D01*
X8262328Y-16953576D02*
X8262328Y-16820243D01*
X8262328Y-16839290D02*
X8271852Y-16829767D01*
X8290900Y-16820243D01*
X8319471Y-16820243D01*
X8338519Y-16829767D01*
X8348043Y-16848814D01*
X8348043Y-16953576D01*
X8348043Y-16848814D02*
X8357567Y-16829767D01*
X8376614Y-16820243D01*
X8405186Y-16820243D01*
X8424233Y-16829767D01*
X8433757Y-16848814D01*
X8433757Y-16953576D01*
X8824233Y-16744052D02*
X8652805Y-17001195D01*
X9081376Y-16753576D02*
X9100424Y-16753576D01*
X9119471Y-16763100D01*
X9128995Y-16772624D01*
X9138519Y-16791671D01*
X9148043Y-16829767D01*
X9148043Y-16877386D01*
X9138519Y-16915481D01*
X9128995Y-16934529D01*
X9119471Y-16944052D01*
X9100424Y-16953576D01*
X9081376Y-16953576D01*
X9062329Y-16944052D01*
X9052805Y-16934529D01*
X9043281Y-16915481D01*
X9033757Y-16877386D01*
X9033757Y-16829767D01*
X9043281Y-16791671D01*
X9052805Y-16772624D01*
X9062329Y-16763100D01*
X9081376Y-16753576D01*
X9233757Y-16934529D02*
X9243281Y-16944052D01*
X9233757Y-16953576D01*
X9224233Y-16944052D01*
X9233757Y-16934529D01*
X9233757Y-16953576D01*
X9367090Y-16753576D02*
X9386138Y-16753576D01*
X9405186Y-16763100D01*
X9414710Y-16772624D01*
X9424233Y-16791671D01*
X9433757Y-16829767D01*
X9433757Y-16877386D01*
X9424233Y-16915481D01*
X9414710Y-16934529D01*
X9405186Y-16944052D01*
X9386138Y-16953576D01*
X9367090Y-16953576D01*
X9348043Y-16944052D01*
X9338519Y-16934529D01*
X9328995Y-16915481D01*
X9319471Y-16877386D01*
X9319471Y-16829767D01*
X9328995Y-16791671D01*
X9338519Y-16772624D01*
X9348043Y-16763100D01*
X9367090Y-16753576D01*
X9614710Y-16753576D02*
X9519471Y-16753576D01*
X9509948Y-16848814D01*
X9519471Y-16839290D01*
X9538519Y-16829767D01*
X9586138Y-16829767D01*
X9605186Y-16839290D01*
X9614710Y-16848814D01*
X9624233Y-16867862D01*
X9624233Y-16915481D01*
X9614710Y-16934529D01*
X9605186Y-16944052D01*
X9586138Y-16953576D01*
X9538519Y-16953576D01*
X9519471Y-16944052D01*
X9509948Y-16934529D01*
X9719471Y-16953576D02*
X9757567Y-16953576D01*
X9776614Y-16944052D01*
X9786138Y-16934529D01*
X9805186Y-16905957D01*
X9814710Y-16867862D01*
X9814710Y-16791671D01*
X9805186Y-16772624D01*
X9795662Y-16763100D01*
X9776614Y-16753576D01*
X9738519Y-16753576D01*
X9719471Y-16763100D01*
X9709948Y-16772624D01*
X9700424Y-16791671D01*
X9700424Y-16839290D01*
X9709948Y-16858338D01*
X9719471Y-16867862D01*
X9738519Y-16877386D01*
X9776614Y-16877386D01*
X9795662Y-16867862D01*
X9805186Y-16858338D01*
X9814710Y-16839290D01*
X10005186Y-16953576D02*
X9890900Y-16953576D01*
X9948043Y-16953576D02*
X9948043Y-16753576D01*
X9928995Y-16782148D01*
X9909948Y-16801195D01*
X9890900Y-16810719D01*
X10081376Y-16753576D02*
X10081376Y-16791671D01*
X10157567Y-16753576D02*
X10157567Y-16791671D01*
X10452805Y-17029767D02*
X10443281Y-17020243D01*
X10424233Y-16991671D01*
X10414710Y-16972624D01*
X10405186Y-16944052D01*
X10395662Y-16896433D01*
X10395662Y-16858338D01*
X10405186Y-16810719D01*
X10414710Y-16782148D01*
X10424233Y-16763100D01*
X10443281Y-16734528D01*
X10452805Y-16725005D01*
X10633757Y-16953576D02*
X10519471Y-16953576D01*
X10576614Y-16953576D02*
X10576614Y-16753576D01*
X10557567Y-16782148D01*
X10538519Y-16801195D01*
X10519471Y-16810719D01*
X10871852Y-16953576D02*
X10871852Y-16753576D01*
X10957567Y-16953576D02*
X10957567Y-16848814D01*
X10948043Y-16829767D01*
X10928995Y-16820243D01*
X10900424Y-16820243D01*
X10881376Y-16829767D01*
X10871852Y-16839290D01*
X11081376Y-16953576D02*
X11062329Y-16944052D01*
X11052805Y-16934529D01*
X11043281Y-16915481D01*
X11043281Y-16858338D01*
X11052805Y-16839290D01*
X11062329Y-16829767D01*
X11081376Y-16820243D01*
X11109948Y-16820243D01*
X11128995Y-16829767D01*
X11138519Y-16839290D01*
X11148043Y-16858338D01*
X11148043Y-16915481D01*
X11138519Y-16934529D01*
X11128995Y-16944052D01*
X11109948Y-16953576D01*
X11081376Y-16953576D01*
X11262328Y-16953576D02*
X11243281Y-16944052D01*
X11233757Y-16925005D01*
X11233757Y-16753576D01*
X11414709Y-16944052D02*
X11395662Y-16953576D01*
X11357567Y-16953576D01*
X11338519Y-16944052D01*
X11328995Y-16925005D01*
X11328995Y-16848814D01*
X11338519Y-16829767D01*
X11357567Y-16820243D01*
X11395662Y-16820243D01*
X11414709Y-16829767D01*
X11424233Y-16848814D01*
X11424233Y-16867862D01*
X11328995Y-16886910D01*
X11490900Y-17029767D02*
X11500424Y-17020243D01*
X11519471Y-16991671D01*
X11528995Y-16972624D01*
X11538519Y-16944052D01*
X11548043Y-16896433D01*
X11548043Y-16858338D01*
X11538519Y-16810719D01*
X11528995Y-16782148D01*
X11519471Y-16763100D01*
X11500424Y-16734528D01*
X11490900Y-16725005D01*
D20*
X6720900Y-17053100D02*
X6880900Y-17213100D01*
X6880900Y-17053100D02*
X6720900Y-17213100D01*
X6800900Y-17213100D02*
X6880900Y-17133100D01*
X6800900Y-17053100D01*
X6720900Y-17133100D01*
X6800900Y-17213100D01*
D11*
X7243281Y-17223576D02*
X7128995Y-17223576D01*
X7186138Y-17223576D02*
X7186138Y-17023576D01*
X7167090Y-17052148D01*
X7148043Y-17071195D01*
X7128995Y-17080719D01*
X7328995Y-17204529D02*
X7338519Y-17214052D01*
X7328995Y-17223576D01*
X7319471Y-17214052D01*
X7328995Y-17204529D01*
X7328995Y-17223576D01*
X7509948Y-17023576D02*
X7471852Y-17023576D01*
X7452805Y-17033100D01*
X7443281Y-17042624D01*
X7424233Y-17071195D01*
X7414709Y-17109290D01*
X7414709Y-17185481D01*
X7424233Y-17204529D01*
X7433757Y-17214052D01*
X7452805Y-17223576D01*
X7490900Y-17223576D01*
X7509948Y-17214052D01*
X7519471Y-17204529D01*
X7528995Y-17185481D01*
X7528995Y-17137862D01*
X7519471Y-17118814D01*
X7509948Y-17109290D01*
X7490900Y-17099767D01*
X7452805Y-17099767D01*
X7433757Y-17109290D01*
X7424233Y-17118814D01*
X7414709Y-17137862D01*
X7652805Y-17023576D02*
X7671852Y-17023576D01*
X7690900Y-17033100D01*
X7700424Y-17042624D01*
X7709948Y-17061671D01*
X7719471Y-17099767D01*
X7719471Y-17147386D01*
X7709948Y-17185481D01*
X7700424Y-17204529D01*
X7690900Y-17214052D01*
X7671852Y-17223576D01*
X7652805Y-17223576D01*
X7633757Y-17214052D01*
X7624233Y-17204529D01*
X7614709Y-17185481D01*
X7605186Y-17147386D01*
X7605186Y-17099767D01*
X7614709Y-17061671D01*
X7624233Y-17042624D01*
X7633757Y-17033100D01*
X7652805Y-17023576D01*
X7843281Y-17023576D02*
X7862328Y-17023576D01*
X7881376Y-17033100D01*
X7890900Y-17042624D01*
X7900424Y-17061671D01*
X7909948Y-17099767D01*
X7909948Y-17147386D01*
X7900424Y-17185481D01*
X7890900Y-17204529D01*
X7881376Y-17214052D01*
X7862328Y-17223576D01*
X7843281Y-17223576D01*
X7824233Y-17214052D01*
X7814709Y-17204529D01*
X7805186Y-17185481D01*
X7795662Y-17147386D01*
X7795662Y-17099767D01*
X7805186Y-17061671D01*
X7814709Y-17042624D01*
X7824233Y-17033100D01*
X7843281Y-17023576D01*
X7995662Y-17223576D02*
X7995662Y-17090243D01*
X7995662Y-17109290D02*
X8005186Y-17099767D01*
X8024233Y-17090243D01*
X8052805Y-17090243D01*
X8071852Y-17099767D01*
X8081376Y-17118814D01*
X8081376Y-17223576D01*
X8081376Y-17118814D02*
X8090900Y-17099767D01*
X8109948Y-17090243D01*
X8138519Y-17090243D01*
X8157567Y-17099767D01*
X8167090Y-17118814D01*
X8167090Y-17223576D01*
X8262328Y-17223576D02*
X8262328Y-17090243D01*
X8262328Y-17109290D02*
X8271852Y-17099767D01*
X8290900Y-17090243D01*
X8319471Y-17090243D01*
X8338519Y-17099767D01*
X8348043Y-17118814D01*
X8348043Y-17223576D01*
X8348043Y-17118814D02*
X8357567Y-17099767D01*
X8376614Y-17090243D01*
X8405186Y-17090243D01*
X8424233Y-17099767D01*
X8433757Y-17118814D01*
X8433757Y-17223576D01*
X8824233Y-17014052D02*
X8652805Y-17271195D01*
X9081376Y-17023576D02*
X9100424Y-17023576D01*
X9119471Y-17033100D01*
X9128995Y-17042624D01*
X9138519Y-17061671D01*
X9148043Y-17099767D01*
X9148043Y-17147386D01*
X9138519Y-17185481D01*
X9128995Y-17204529D01*
X9119471Y-17214052D01*
X9100424Y-17223576D01*
X9081376Y-17223576D01*
X9062329Y-17214052D01*
X9052805Y-17204529D01*
X9043281Y-17185481D01*
X9033757Y-17147386D01*
X9033757Y-17099767D01*
X9043281Y-17061671D01*
X9052805Y-17042624D01*
X9062329Y-17033100D01*
X9081376Y-17023576D01*
X9233757Y-17204529D02*
X9243281Y-17214052D01*
X9233757Y-17223576D01*
X9224233Y-17214052D01*
X9233757Y-17204529D01*
X9233757Y-17223576D01*
X9367090Y-17023576D02*
X9386138Y-17023576D01*
X9405186Y-17033100D01*
X9414710Y-17042624D01*
X9424233Y-17061671D01*
X9433757Y-17099767D01*
X9433757Y-17147386D01*
X9424233Y-17185481D01*
X9414710Y-17204529D01*
X9405186Y-17214052D01*
X9386138Y-17223576D01*
X9367090Y-17223576D01*
X9348043Y-17214052D01*
X9338519Y-17204529D01*
X9328995Y-17185481D01*
X9319471Y-17147386D01*
X9319471Y-17099767D01*
X9328995Y-17061671D01*
X9338519Y-17042624D01*
X9348043Y-17033100D01*
X9367090Y-17023576D01*
X9605186Y-17023576D02*
X9567090Y-17023576D01*
X9548043Y-17033100D01*
X9538519Y-17042624D01*
X9519471Y-17071195D01*
X9509948Y-17109290D01*
X9509948Y-17185481D01*
X9519471Y-17204529D01*
X9528995Y-17214052D01*
X9548043Y-17223576D01*
X9586138Y-17223576D01*
X9605186Y-17214052D01*
X9614710Y-17204529D01*
X9624233Y-17185481D01*
X9624233Y-17137862D01*
X9614710Y-17118814D01*
X9605186Y-17109290D01*
X9586138Y-17099767D01*
X9548043Y-17099767D01*
X9528995Y-17109290D01*
X9519471Y-17118814D01*
X9509948Y-17137862D01*
X9690900Y-17023576D02*
X9814710Y-17023576D01*
X9748043Y-17099767D01*
X9776614Y-17099767D01*
X9795662Y-17109290D01*
X9805186Y-17118814D01*
X9814710Y-17137862D01*
X9814710Y-17185481D01*
X9805186Y-17204529D01*
X9795662Y-17214052D01*
X9776614Y-17223576D01*
X9719471Y-17223576D01*
X9700424Y-17214052D01*
X9690900Y-17204529D01*
X9938519Y-17023576D02*
X9957567Y-17023576D01*
X9976614Y-17033100D01*
X9986138Y-17042624D01*
X9995662Y-17061671D01*
X10005186Y-17099767D01*
X10005186Y-17147386D01*
X9995662Y-17185481D01*
X9986138Y-17204529D01*
X9976614Y-17214052D01*
X9957567Y-17223576D01*
X9938519Y-17223576D01*
X9919471Y-17214052D01*
X9909948Y-17204529D01*
X9900424Y-17185481D01*
X9890900Y-17147386D01*
X9890900Y-17099767D01*
X9900424Y-17061671D01*
X9909948Y-17042624D01*
X9919471Y-17033100D01*
X9938519Y-17023576D01*
X10081376Y-17023576D02*
X10081376Y-17061671D01*
X10157567Y-17023576D02*
X10157567Y-17061671D01*
X10452805Y-17299767D02*
X10443281Y-17290243D01*
X10424233Y-17261671D01*
X10414710Y-17242624D01*
X10405186Y-17214052D01*
X10395662Y-17166433D01*
X10395662Y-17128338D01*
X10405186Y-17080719D01*
X10414710Y-17052148D01*
X10424233Y-17033100D01*
X10443281Y-17004529D01*
X10452805Y-16995005D01*
X10614710Y-17023576D02*
X10576614Y-17023576D01*
X10557567Y-17033100D01*
X10548043Y-17042624D01*
X10528995Y-17071195D01*
X10519471Y-17109290D01*
X10519471Y-17185481D01*
X10528995Y-17204529D01*
X10538519Y-17214052D01*
X10557567Y-17223576D01*
X10595662Y-17223576D01*
X10614710Y-17214052D01*
X10624233Y-17204529D01*
X10633757Y-17185481D01*
X10633757Y-17137862D01*
X10624233Y-17118814D01*
X10614710Y-17109290D01*
X10595662Y-17099767D01*
X10557567Y-17099767D01*
X10538519Y-17109290D01*
X10528995Y-17118814D01*
X10519471Y-17137862D01*
X10871852Y-17223576D02*
X10871852Y-17023576D01*
X10957567Y-17223576D02*
X10957567Y-17118814D01*
X10948043Y-17099767D01*
X10928995Y-17090243D01*
X10900424Y-17090243D01*
X10881376Y-17099767D01*
X10871852Y-17109290D01*
X11081376Y-17223576D02*
X11062329Y-17214052D01*
X11052805Y-17204529D01*
X11043281Y-17185481D01*
X11043281Y-17128338D01*
X11052805Y-17109290D01*
X11062329Y-17099767D01*
X11081376Y-17090243D01*
X11109948Y-17090243D01*
X11128995Y-17099767D01*
X11138519Y-17109290D01*
X11148043Y-17128338D01*
X11148043Y-17185481D01*
X11138519Y-17204529D01*
X11128995Y-17214052D01*
X11109948Y-17223576D01*
X11081376Y-17223576D01*
X11262328Y-17223576D02*
X11243281Y-17214052D01*
X11233757Y-17195005D01*
X11233757Y-17023576D01*
X11414709Y-17214052D02*
X11395662Y-17223576D01*
X11357567Y-17223576D01*
X11338519Y-17214052D01*
X11328995Y-17195005D01*
X11328995Y-17118814D01*
X11338519Y-17099767D01*
X11357567Y-17090243D01*
X11395662Y-17090243D01*
X11414709Y-17099767D01*
X11424233Y-17118814D01*
X11424233Y-17137862D01*
X11328995Y-17156910D01*
X11500424Y-17214052D02*
X11519471Y-17223576D01*
X11557567Y-17223576D01*
X11576614Y-17214052D01*
X11586138Y-17195005D01*
X11586138Y-17185481D01*
X11576614Y-17166433D01*
X11557567Y-17156910D01*
X11528995Y-17156910D01*
X11509948Y-17147386D01*
X11500424Y-17128338D01*
X11500424Y-17118814D01*
X11509948Y-17099767D01*
X11528995Y-17090243D01*
X11557567Y-17090243D01*
X11576614Y-17099767D01*
X11652805Y-17299767D02*
X11662328Y-17290243D01*
X11681376Y-17261671D01*
X11690900Y-17242624D01*
X11700424Y-17214052D01*
X11709948Y-17166433D01*
X11709948Y-17128338D01*
X11700424Y-17080719D01*
X11690900Y-17052148D01*
X11681376Y-17033100D01*
X11662328Y-17004529D01*
X11652805Y-16995005D01*
D21*
X6795900Y-17328100D02*
X6795900Y-17498100D01*
X6710900Y-17413100D02*
X6880900Y-17413100D01*
X6880900Y-17413100D02*
G75*
G03*
X6880900Y-17413100I-85000J0D01*
G01*
D11*
X7243281Y-17503576D02*
X7128995Y-17503576D01*
X7186138Y-17503576D02*
X7186138Y-17303576D01*
X7167090Y-17332148D01*
X7148043Y-17351195D01*
X7128995Y-17360719D01*
X7328995Y-17484529D02*
X7338519Y-17494052D01*
X7328995Y-17503576D01*
X7319471Y-17494052D01*
X7328995Y-17484529D01*
X7328995Y-17503576D01*
X7405186Y-17303576D02*
X7538519Y-17303576D01*
X7452805Y-17503576D01*
X7652805Y-17303576D02*
X7671852Y-17303576D01*
X7690900Y-17313100D01*
X7700424Y-17322624D01*
X7709948Y-17341671D01*
X7719471Y-17379767D01*
X7719471Y-17427386D01*
X7709948Y-17465481D01*
X7700424Y-17484529D01*
X7690900Y-17494052D01*
X7671852Y-17503576D01*
X7652805Y-17503576D01*
X7633757Y-17494052D01*
X7624233Y-17484529D01*
X7614709Y-17465481D01*
X7605186Y-17427386D01*
X7605186Y-17379767D01*
X7614709Y-17341671D01*
X7624233Y-17322624D01*
X7633757Y-17313100D01*
X7652805Y-17303576D01*
X7843281Y-17303576D02*
X7862328Y-17303576D01*
X7881376Y-17313100D01*
X7890900Y-17322624D01*
X7900424Y-17341671D01*
X7909948Y-17379767D01*
X7909948Y-17427386D01*
X7900424Y-17465481D01*
X7890900Y-17484529D01*
X7881376Y-17494052D01*
X7862328Y-17503576D01*
X7843281Y-17503576D01*
X7824233Y-17494052D01*
X7814709Y-17484529D01*
X7805186Y-17465481D01*
X7795662Y-17427386D01*
X7795662Y-17379767D01*
X7805186Y-17341671D01*
X7814709Y-17322624D01*
X7824233Y-17313100D01*
X7843281Y-17303576D01*
X7995662Y-17503576D02*
X7995662Y-17370243D01*
X7995662Y-17389290D02*
X8005186Y-17379767D01*
X8024233Y-17370243D01*
X8052805Y-17370243D01*
X8071852Y-17379767D01*
X8081376Y-17398814D01*
X8081376Y-17503576D01*
X8081376Y-17398814D02*
X8090900Y-17379767D01*
X8109948Y-17370243D01*
X8138519Y-17370243D01*
X8157567Y-17379767D01*
X8167090Y-17398814D01*
X8167090Y-17503576D01*
X8262328Y-17503576D02*
X8262328Y-17370243D01*
X8262328Y-17389290D02*
X8271852Y-17379767D01*
X8290900Y-17370243D01*
X8319471Y-17370243D01*
X8338519Y-17379767D01*
X8348043Y-17398814D01*
X8348043Y-17503576D01*
X8348043Y-17398814D02*
X8357567Y-17379767D01*
X8376614Y-17370243D01*
X8405186Y-17370243D01*
X8424233Y-17379767D01*
X8433757Y-17398814D01*
X8433757Y-17503576D01*
X8824233Y-17294052D02*
X8652805Y-17551195D01*
X9081376Y-17303576D02*
X9100424Y-17303576D01*
X9119471Y-17313100D01*
X9128995Y-17322624D01*
X9138519Y-17341671D01*
X9148043Y-17379767D01*
X9148043Y-17427386D01*
X9138519Y-17465481D01*
X9128995Y-17484529D01*
X9119471Y-17494052D01*
X9100424Y-17503576D01*
X9081376Y-17503576D01*
X9062329Y-17494052D01*
X9052805Y-17484529D01*
X9043281Y-17465481D01*
X9033757Y-17427386D01*
X9033757Y-17379767D01*
X9043281Y-17341671D01*
X9052805Y-17322624D01*
X9062329Y-17313100D01*
X9081376Y-17303576D01*
X9233757Y-17484529D02*
X9243281Y-17494052D01*
X9233757Y-17503576D01*
X9224233Y-17494052D01*
X9233757Y-17484529D01*
X9233757Y-17503576D01*
X9367090Y-17303576D02*
X9386138Y-17303576D01*
X9405186Y-17313100D01*
X9414710Y-17322624D01*
X9424233Y-17341671D01*
X9433757Y-17379767D01*
X9433757Y-17427386D01*
X9424233Y-17465481D01*
X9414710Y-17484529D01*
X9405186Y-17494052D01*
X9386138Y-17503576D01*
X9367090Y-17503576D01*
X9348043Y-17494052D01*
X9338519Y-17484529D01*
X9328995Y-17465481D01*
X9319471Y-17427386D01*
X9319471Y-17379767D01*
X9328995Y-17341671D01*
X9338519Y-17322624D01*
X9348043Y-17313100D01*
X9367090Y-17303576D01*
X9605186Y-17303576D02*
X9567090Y-17303576D01*
X9548043Y-17313100D01*
X9538519Y-17322624D01*
X9519471Y-17351195D01*
X9509948Y-17389290D01*
X9509948Y-17465481D01*
X9519471Y-17484529D01*
X9528995Y-17494052D01*
X9548043Y-17503576D01*
X9586138Y-17503576D01*
X9605186Y-17494052D01*
X9614710Y-17484529D01*
X9624233Y-17465481D01*
X9624233Y-17417862D01*
X9614710Y-17398814D01*
X9605186Y-17389290D01*
X9586138Y-17379767D01*
X9548043Y-17379767D01*
X9528995Y-17389290D01*
X9519471Y-17398814D01*
X9509948Y-17417862D01*
X9795662Y-17303576D02*
X9757567Y-17303576D01*
X9738519Y-17313100D01*
X9728995Y-17322624D01*
X9709948Y-17351195D01*
X9700424Y-17389290D01*
X9700424Y-17465481D01*
X9709948Y-17484529D01*
X9719471Y-17494052D01*
X9738519Y-17503576D01*
X9776614Y-17503576D01*
X9795662Y-17494052D01*
X9805186Y-17484529D01*
X9814710Y-17465481D01*
X9814710Y-17417862D01*
X9805186Y-17398814D01*
X9795662Y-17389290D01*
X9776614Y-17379767D01*
X9738519Y-17379767D01*
X9719471Y-17389290D01*
X9709948Y-17398814D01*
X9700424Y-17417862D01*
X9909948Y-17503576D02*
X9948043Y-17503576D01*
X9967090Y-17494052D01*
X9976614Y-17484529D01*
X9995662Y-17455957D01*
X10005186Y-17417862D01*
X10005186Y-17341671D01*
X9995662Y-17322624D01*
X9986138Y-17313100D01*
X9967090Y-17303576D01*
X9928995Y-17303576D01*
X9909948Y-17313100D01*
X9900424Y-17322624D01*
X9890900Y-17341671D01*
X9890900Y-17389290D01*
X9900424Y-17408338D01*
X9909948Y-17417862D01*
X9928995Y-17427386D01*
X9967090Y-17427386D01*
X9986138Y-17417862D01*
X9995662Y-17408338D01*
X10005186Y-17389290D01*
X10081376Y-17303576D02*
X10081376Y-17341671D01*
X10157567Y-17303576D02*
X10157567Y-17341671D01*
X10452805Y-17579767D02*
X10443281Y-17570243D01*
X10424233Y-17541671D01*
X10414710Y-17522624D01*
X10405186Y-17494052D01*
X10395662Y-17446433D01*
X10395662Y-17408338D01*
X10405186Y-17360719D01*
X10414710Y-17332148D01*
X10424233Y-17313100D01*
X10443281Y-17284529D01*
X10452805Y-17275005D01*
X10519471Y-17322624D02*
X10528995Y-17313100D01*
X10548043Y-17303576D01*
X10595662Y-17303576D01*
X10614710Y-17313100D01*
X10624233Y-17322624D01*
X10633757Y-17341671D01*
X10633757Y-17360719D01*
X10624233Y-17389290D01*
X10509948Y-17503576D01*
X10633757Y-17503576D01*
X10871852Y-17503576D02*
X10871852Y-17303576D01*
X10957567Y-17503576D02*
X10957567Y-17398814D01*
X10948043Y-17379767D01*
X10928995Y-17370243D01*
X10900424Y-17370243D01*
X10881376Y-17379767D01*
X10871852Y-17389290D01*
X11081376Y-17503576D02*
X11062329Y-17494052D01*
X11052805Y-17484529D01*
X11043281Y-17465481D01*
X11043281Y-17408338D01*
X11052805Y-17389290D01*
X11062329Y-17379767D01*
X11081376Y-17370243D01*
X11109948Y-17370243D01*
X11128995Y-17379767D01*
X11138519Y-17389290D01*
X11148043Y-17408338D01*
X11148043Y-17465481D01*
X11138519Y-17484529D01*
X11128995Y-17494052D01*
X11109948Y-17503576D01*
X11081376Y-17503576D01*
X11262328Y-17503576D02*
X11243281Y-17494052D01*
X11233757Y-17475005D01*
X11233757Y-17303576D01*
X11414709Y-17494052D02*
X11395662Y-17503576D01*
X11357567Y-17503576D01*
X11338519Y-17494052D01*
X11328995Y-17475005D01*
X11328995Y-17398814D01*
X11338519Y-17379767D01*
X11357567Y-17370243D01*
X11395662Y-17370243D01*
X11414709Y-17379767D01*
X11424233Y-17398814D01*
X11424233Y-17417862D01*
X11328995Y-17436910D01*
X11500424Y-17494052D02*
X11519471Y-17503576D01*
X11557567Y-17503576D01*
X11576614Y-17494052D01*
X11586138Y-17475005D01*
X11586138Y-17465481D01*
X11576614Y-17446433D01*
X11557567Y-17436910D01*
X11528995Y-17436910D01*
X11509948Y-17427386D01*
X11500424Y-17408338D01*
X11500424Y-17398814D01*
X11509948Y-17379767D01*
X11528995Y-17370243D01*
X11557567Y-17370243D01*
X11576614Y-17379767D01*
X11652805Y-17579767D02*
X11662328Y-17570243D01*
X11681376Y-17541671D01*
X11690900Y-17522624D01*
X11700424Y-17494052D01*
X11709948Y-17446433D01*
X11709948Y-17408338D01*
X11700424Y-17360719D01*
X11690900Y-17332148D01*
X11681376Y-17313100D01*
X11662328Y-17284529D01*
X11652805Y-17275005D01*
D22*
X6854833Y-17766033D02*
X6854833Y-17640167D01*
X6728967Y-17640167D01*
X6728967Y-17766033D01*
X6854833Y-17766033D01*
X6880900Y-17703100D02*
G75*
G03*
X6880900Y-17703100I-89000J0D01*
G01*
D11*
X7243281Y-17793576D02*
X7128995Y-17793576D01*
X7186138Y-17793576D02*
X7186138Y-17593576D01*
X7167090Y-17622148D01*
X7148043Y-17641195D01*
X7128995Y-17650719D01*
X7328995Y-17774529D02*
X7338519Y-17784052D01*
X7328995Y-17793576D01*
X7319471Y-17784052D01*
X7328995Y-17774529D01*
X7328995Y-17793576D01*
X7405186Y-17593576D02*
X7538519Y-17593576D01*
X7452805Y-17793576D01*
X7643281Y-17679290D02*
X7624233Y-17669767D01*
X7614709Y-17660243D01*
X7605186Y-17641195D01*
X7605186Y-17631671D01*
X7614709Y-17612624D01*
X7624233Y-17603100D01*
X7643281Y-17593576D01*
X7681376Y-17593576D01*
X7700424Y-17603100D01*
X7709948Y-17612624D01*
X7719471Y-17631671D01*
X7719471Y-17641195D01*
X7709948Y-17660243D01*
X7700424Y-17669767D01*
X7681376Y-17679290D01*
X7643281Y-17679290D01*
X7624233Y-17688814D01*
X7614709Y-17698338D01*
X7605186Y-17717386D01*
X7605186Y-17755481D01*
X7614709Y-17774529D01*
X7624233Y-17784052D01*
X7643281Y-17793576D01*
X7681376Y-17793576D01*
X7700424Y-17784052D01*
X7709948Y-17774529D01*
X7719471Y-17755481D01*
X7719471Y-17717386D01*
X7709948Y-17698338D01*
X7700424Y-17688814D01*
X7681376Y-17679290D01*
X7843281Y-17593576D02*
X7862328Y-17593576D01*
X7881376Y-17603100D01*
X7890900Y-17612624D01*
X7900424Y-17631671D01*
X7909948Y-17669767D01*
X7909948Y-17717386D01*
X7900424Y-17755481D01*
X7890900Y-17774529D01*
X7881376Y-17784052D01*
X7862328Y-17793576D01*
X7843281Y-17793576D01*
X7824233Y-17784052D01*
X7814709Y-17774529D01*
X7805186Y-17755481D01*
X7795662Y-17717386D01*
X7795662Y-17669767D01*
X7805186Y-17631671D01*
X7814709Y-17612624D01*
X7824233Y-17603100D01*
X7843281Y-17593576D01*
X7995662Y-17793576D02*
X7995662Y-17660243D01*
X7995662Y-17679290D02*
X8005186Y-17669767D01*
X8024233Y-17660243D01*
X8052805Y-17660243D01*
X8071852Y-17669767D01*
X8081376Y-17688814D01*
X8081376Y-17793576D01*
X8081376Y-17688814D02*
X8090900Y-17669767D01*
X8109948Y-17660243D01*
X8138519Y-17660243D01*
X8157567Y-17669767D01*
X8167090Y-17688814D01*
X8167090Y-17793576D01*
X8262328Y-17793576D02*
X8262328Y-17660243D01*
X8262328Y-17679290D02*
X8271852Y-17669767D01*
X8290900Y-17660243D01*
X8319471Y-17660243D01*
X8338519Y-17669767D01*
X8348043Y-17688814D01*
X8348043Y-17793576D01*
X8348043Y-17688814D02*
X8357567Y-17669767D01*
X8376614Y-17660243D01*
X8405186Y-17660243D01*
X8424233Y-17669767D01*
X8433757Y-17688814D01*
X8433757Y-17793576D01*
X8824233Y-17584052D02*
X8652805Y-17841195D01*
X9081376Y-17593576D02*
X9100424Y-17593576D01*
X9119471Y-17603100D01*
X9128995Y-17612624D01*
X9138519Y-17631671D01*
X9148043Y-17669767D01*
X9148043Y-17717386D01*
X9138519Y-17755481D01*
X9128995Y-17774529D01*
X9119471Y-17784052D01*
X9100424Y-17793576D01*
X9081376Y-17793576D01*
X9062329Y-17784052D01*
X9052805Y-17774529D01*
X9043281Y-17755481D01*
X9033757Y-17717386D01*
X9033757Y-17669767D01*
X9043281Y-17631671D01*
X9052805Y-17612624D01*
X9062329Y-17603100D01*
X9081376Y-17593576D01*
X9233757Y-17774529D02*
X9243281Y-17784052D01*
X9233757Y-17793576D01*
X9224233Y-17784052D01*
X9233757Y-17774529D01*
X9233757Y-17793576D01*
X9367090Y-17593576D02*
X9386138Y-17593576D01*
X9405186Y-17603100D01*
X9414710Y-17612624D01*
X9424233Y-17631671D01*
X9433757Y-17669767D01*
X9433757Y-17717386D01*
X9424233Y-17755481D01*
X9414710Y-17774529D01*
X9405186Y-17784052D01*
X9386138Y-17793576D01*
X9367090Y-17793576D01*
X9348043Y-17784052D01*
X9338519Y-17774529D01*
X9328995Y-17755481D01*
X9319471Y-17717386D01*
X9319471Y-17669767D01*
X9328995Y-17631671D01*
X9338519Y-17612624D01*
X9348043Y-17603100D01*
X9367090Y-17593576D01*
X9500424Y-17593576D02*
X9633757Y-17593576D01*
X9548043Y-17793576D01*
X9748043Y-17593576D02*
X9767090Y-17593576D01*
X9786138Y-17603100D01*
X9795662Y-17612624D01*
X9805186Y-17631671D01*
X9814710Y-17669767D01*
X9814710Y-17717386D01*
X9805186Y-17755481D01*
X9795662Y-17774529D01*
X9786138Y-17784052D01*
X9767090Y-17793576D01*
X9748043Y-17793576D01*
X9728995Y-17784052D01*
X9719471Y-17774529D01*
X9709948Y-17755481D01*
X9700424Y-17717386D01*
X9700424Y-17669767D01*
X9709948Y-17631671D01*
X9719471Y-17612624D01*
X9728995Y-17603100D01*
X9748043Y-17593576D01*
X10005186Y-17793576D02*
X9890900Y-17793576D01*
X9948043Y-17793576D02*
X9948043Y-17593576D01*
X9928995Y-17622148D01*
X9909948Y-17641195D01*
X9890900Y-17650719D01*
X10081376Y-17593576D02*
X10081376Y-17631671D01*
X10157567Y-17593576D02*
X10157567Y-17631671D01*
X10452805Y-17869767D02*
X10443281Y-17860243D01*
X10424233Y-17831671D01*
X10414710Y-17812624D01*
X10405186Y-17784052D01*
X10395662Y-17736433D01*
X10395662Y-17698338D01*
X10405186Y-17650719D01*
X10414710Y-17622148D01*
X10424233Y-17603100D01*
X10443281Y-17574529D01*
X10452805Y-17565005D01*
X10614710Y-17660243D02*
X10614710Y-17793576D01*
X10567090Y-17584052D02*
X10519471Y-17726910D01*
X10643281Y-17726910D01*
X10871852Y-17793576D02*
X10871852Y-17593576D01*
X10957567Y-17793576D02*
X10957567Y-17688814D01*
X10948043Y-17669767D01*
X10928995Y-17660243D01*
X10900424Y-17660243D01*
X10881376Y-17669767D01*
X10871852Y-17679290D01*
X11081376Y-17793576D02*
X11062329Y-17784052D01*
X11052805Y-17774529D01*
X11043281Y-17755481D01*
X11043281Y-17698338D01*
X11052805Y-17679290D01*
X11062329Y-17669767D01*
X11081376Y-17660243D01*
X11109948Y-17660243D01*
X11128995Y-17669767D01*
X11138519Y-17679290D01*
X11148043Y-17698338D01*
X11148043Y-17755481D01*
X11138519Y-17774529D01*
X11128995Y-17784052D01*
X11109948Y-17793576D01*
X11081376Y-17793576D01*
X11262328Y-17793576D02*
X11243281Y-17784052D01*
X11233757Y-17765005D01*
X11233757Y-17593576D01*
X11414709Y-17784052D02*
X11395662Y-17793576D01*
X11357567Y-17793576D01*
X11338519Y-17784052D01*
X11328995Y-17765005D01*
X11328995Y-17688814D01*
X11338519Y-17669767D01*
X11357567Y-17660243D01*
X11395662Y-17660243D01*
X11414709Y-17669767D01*
X11424233Y-17688814D01*
X11424233Y-17707862D01*
X11328995Y-17726910D01*
X11500424Y-17784052D02*
X11519471Y-17793576D01*
X11557567Y-17793576D01*
X11576614Y-17784052D01*
X11586138Y-17765005D01*
X11586138Y-17755481D01*
X11576614Y-17736433D01*
X11557567Y-17726910D01*
X11528995Y-17726910D01*
X11509948Y-17717386D01*
X11500424Y-17698338D01*
X11500424Y-17688814D01*
X11509948Y-17669767D01*
X11528995Y-17660243D01*
X11557567Y-17660243D01*
X11576614Y-17669767D01*
X11652805Y-17869767D02*
X11662328Y-17860243D01*
X11681376Y-17831671D01*
X11690900Y-17812624D01*
X11700424Y-17784052D01*
X11709948Y-17736433D01*
X11709948Y-17698338D01*
X11700424Y-17650719D01*
X11690900Y-17622148D01*
X11681376Y-17603100D01*
X11662328Y-17574529D01*
X11652805Y-17565005D01*
D23*
X6785900Y-18096100D02*
X6880900Y-18001100D01*
X6785900Y-17906100D01*
X6690900Y-18001100D01*
X6785900Y-18096100D01*
X6880900Y-18001100D02*
G75*
G03*
X6880900Y-18001100I-95000J0D01*
G01*
D11*
X7243281Y-18091576D02*
X7128995Y-18091576D01*
X7186138Y-18091576D02*
X7186138Y-17891576D01*
X7167090Y-17920148D01*
X7148043Y-17939195D01*
X7128995Y-17948719D01*
X7328995Y-18072529D02*
X7338519Y-18082052D01*
X7328995Y-18091576D01*
X7319471Y-18082052D01*
X7328995Y-18072529D01*
X7328995Y-18091576D01*
X7433757Y-18091576D02*
X7471852Y-18091576D01*
X7490900Y-18082052D01*
X7500424Y-18072529D01*
X7519471Y-18043957D01*
X7528995Y-18005862D01*
X7528995Y-17929671D01*
X7519471Y-17910624D01*
X7509948Y-17901100D01*
X7490900Y-17891576D01*
X7452805Y-17891576D01*
X7433757Y-17901100D01*
X7424233Y-17910624D01*
X7414709Y-17929671D01*
X7414709Y-17977290D01*
X7424233Y-17996338D01*
X7433757Y-18005862D01*
X7452805Y-18015386D01*
X7490900Y-18015386D01*
X7509948Y-18005862D01*
X7519471Y-17996338D01*
X7528995Y-17977290D01*
X7652805Y-17891576D02*
X7671852Y-17891576D01*
X7690900Y-17901100D01*
X7700424Y-17910624D01*
X7709948Y-17929671D01*
X7719471Y-17967767D01*
X7719471Y-18015386D01*
X7709948Y-18053481D01*
X7700424Y-18072529D01*
X7690900Y-18082052D01*
X7671852Y-18091576D01*
X7652805Y-18091576D01*
X7633757Y-18082052D01*
X7624233Y-18072529D01*
X7614709Y-18053481D01*
X7605186Y-18015386D01*
X7605186Y-17967767D01*
X7614709Y-17929671D01*
X7624233Y-17910624D01*
X7633757Y-17901100D01*
X7652805Y-17891576D01*
X7843281Y-17891576D02*
X7862328Y-17891576D01*
X7881376Y-17901100D01*
X7890900Y-17910624D01*
X7900424Y-17929671D01*
X7909948Y-17967767D01*
X7909948Y-18015386D01*
X7900424Y-18053481D01*
X7890900Y-18072529D01*
X7881376Y-18082052D01*
X7862328Y-18091576D01*
X7843281Y-18091576D01*
X7824233Y-18082052D01*
X7814709Y-18072529D01*
X7805186Y-18053481D01*
X7795662Y-18015386D01*
X7795662Y-17967767D01*
X7805186Y-17929671D01*
X7814709Y-17910624D01*
X7824233Y-17901100D01*
X7843281Y-17891576D01*
X7995662Y-18091576D02*
X7995662Y-17958243D01*
X7995662Y-17977290D02*
X8005186Y-17967767D01*
X8024233Y-17958243D01*
X8052805Y-17958243D01*
X8071852Y-17967767D01*
X8081376Y-17986814D01*
X8081376Y-18091576D01*
X8081376Y-17986814D02*
X8090900Y-17967767D01*
X8109948Y-17958243D01*
X8138519Y-17958243D01*
X8157567Y-17967767D01*
X8167090Y-17986814D01*
X8167090Y-18091576D01*
X8262328Y-18091576D02*
X8262328Y-17958243D01*
X8262328Y-17977290D02*
X8271852Y-17967767D01*
X8290900Y-17958243D01*
X8319471Y-17958243D01*
X8338519Y-17967767D01*
X8348043Y-17986814D01*
X8348043Y-18091576D01*
X8348043Y-17986814D02*
X8357567Y-17967767D01*
X8376614Y-17958243D01*
X8405186Y-17958243D01*
X8424233Y-17967767D01*
X8433757Y-17986814D01*
X8433757Y-18091576D01*
X8824233Y-17882052D02*
X8652805Y-18139195D01*
X9081376Y-17891576D02*
X9100424Y-17891576D01*
X9119471Y-17901100D01*
X9128995Y-17910624D01*
X9138519Y-17929671D01*
X9148043Y-17967767D01*
X9148043Y-18015386D01*
X9138519Y-18053481D01*
X9128995Y-18072529D01*
X9119471Y-18082052D01*
X9100424Y-18091576D01*
X9081376Y-18091576D01*
X9062329Y-18082052D01*
X9052805Y-18072529D01*
X9043281Y-18053481D01*
X9033757Y-18015386D01*
X9033757Y-17967767D01*
X9043281Y-17929671D01*
X9052805Y-17910624D01*
X9062329Y-17901100D01*
X9081376Y-17891576D01*
X9233757Y-18072529D02*
X9243281Y-18082052D01*
X9233757Y-18091576D01*
X9224233Y-18082052D01*
X9233757Y-18072529D01*
X9233757Y-18091576D01*
X9367090Y-17891576D02*
X9386138Y-17891576D01*
X9405186Y-17901100D01*
X9414710Y-17910624D01*
X9424233Y-17929671D01*
X9433757Y-17967767D01*
X9433757Y-18015386D01*
X9424233Y-18053481D01*
X9414710Y-18072529D01*
X9405186Y-18082052D01*
X9386138Y-18091576D01*
X9367090Y-18091576D01*
X9348043Y-18082052D01*
X9338519Y-18072529D01*
X9328995Y-18053481D01*
X9319471Y-18015386D01*
X9319471Y-17967767D01*
X9328995Y-17929671D01*
X9338519Y-17910624D01*
X9348043Y-17901100D01*
X9367090Y-17891576D01*
X9500424Y-17891576D02*
X9633757Y-17891576D01*
X9548043Y-18091576D01*
X9795662Y-17958243D02*
X9795662Y-18091576D01*
X9748043Y-17882052D02*
X9700424Y-18024910D01*
X9824233Y-18024910D01*
X9928995Y-17977290D02*
X9909948Y-17967767D01*
X9900424Y-17958243D01*
X9890900Y-17939195D01*
X9890900Y-17929671D01*
X9900424Y-17910624D01*
X9909948Y-17901100D01*
X9928995Y-17891576D01*
X9967090Y-17891576D01*
X9986138Y-17901100D01*
X9995662Y-17910624D01*
X10005186Y-17929671D01*
X10005186Y-17939195D01*
X9995662Y-17958243D01*
X9986138Y-17967767D01*
X9967090Y-17977290D01*
X9928995Y-17977290D01*
X9909948Y-17986814D01*
X9900424Y-17996338D01*
X9890900Y-18015386D01*
X9890900Y-18053481D01*
X9900424Y-18072529D01*
X9909948Y-18082052D01*
X9928995Y-18091576D01*
X9967090Y-18091576D01*
X9986138Y-18082052D01*
X9995662Y-18072529D01*
X10005186Y-18053481D01*
X10005186Y-18015386D01*
X9995662Y-17996338D01*
X9986138Y-17986814D01*
X9967090Y-17977290D01*
X10081376Y-17891576D02*
X10081376Y-17929671D01*
X10157567Y-17891576D02*
X10157567Y-17929671D01*
X10452805Y-18167767D02*
X10443281Y-18158243D01*
X10424233Y-18129671D01*
X10414710Y-18110624D01*
X10405186Y-18082052D01*
X10395662Y-18034433D01*
X10395662Y-17996338D01*
X10405186Y-17948719D01*
X10414710Y-17920148D01*
X10424233Y-17901100D01*
X10443281Y-17872529D01*
X10452805Y-17863005D01*
X10614710Y-17958243D02*
X10614710Y-18091576D01*
X10567090Y-17882052D02*
X10519471Y-18024910D01*
X10643281Y-18024910D01*
X10871852Y-18091576D02*
X10871852Y-17891576D01*
X10957567Y-18091576D02*
X10957567Y-17986814D01*
X10948043Y-17967767D01*
X10928995Y-17958243D01*
X10900424Y-17958243D01*
X10881376Y-17967767D01*
X10871852Y-17977290D01*
X11081376Y-18091576D02*
X11062329Y-18082052D01*
X11052805Y-18072529D01*
X11043281Y-18053481D01*
X11043281Y-17996338D01*
X11052805Y-17977290D01*
X11062329Y-17967767D01*
X11081376Y-17958243D01*
X11109948Y-17958243D01*
X11128995Y-17967767D01*
X11138519Y-17977290D01*
X11148043Y-17996338D01*
X11148043Y-18053481D01*
X11138519Y-18072529D01*
X11128995Y-18082052D01*
X11109948Y-18091576D01*
X11081376Y-18091576D01*
X11262328Y-18091576D02*
X11243281Y-18082052D01*
X11233757Y-18063005D01*
X11233757Y-17891576D01*
X11414709Y-18082052D02*
X11395662Y-18091576D01*
X11357567Y-18091576D01*
X11338519Y-18082052D01*
X11328995Y-18063005D01*
X11328995Y-17986814D01*
X11338519Y-17967767D01*
X11357567Y-17958243D01*
X11395662Y-17958243D01*
X11414709Y-17967767D01*
X11424233Y-17986814D01*
X11424233Y-18005862D01*
X11328995Y-18024910D01*
X11500424Y-18082052D02*
X11519471Y-18091576D01*
X11557567Y-18091576D01*
X11576614Y-18082052D01*
X11586138Y-18063005D01*
X11586138Y-18053481D01*
X11576614Y-18034433D01*
X11557567Y-18024910D01*
X11528995Y-18024910D01*
X11509948Y-18015386D01*
X11500424Y-17996338D01*
X11500424Y-17986814D01*
X11509948Y-17967767D01*
X11528995Y-17958243D01*
X11557567Y-17958243D01*
X11576614Y-17967767D01*
X11652805Y-18167767D02*
X11662328Y-18158243D01*
X11681376Y-18129671D01*
X11690900Y-18110624D01*
X11700424Y-18082052D01*
X11709948Y-18034433D01*
X11709948Y-17996338D01*
X11700424Y-17948719D01*
X11690900Y-17920148D01*
X11681376Y-17901100D01*
X11662328Y-17872529D01*
X11652805Y-17863005D01*
M02*
