M48
; DRILL file {KiCad (6.0.10)} date Tue Jan 17 16:52:19 2023
; FORMAT={-:-/ absolute / inch / decimal}
; #@! TF.CreationDate,2023-01-17T16:52:19-07:00
; #@! TF.GenerationSoftware,Kicad,Pcbnew,(6.0.10)
; #@! TF.FileFunction,Plated,1,2,PTH
FMAT,2
INCH
; #@! TA.AperFunction,Plated,PTH,ViaDrill
T1C0.0157
; #@! TA.AperFunction,Plated,PTH,ComponentDrill
T2C0.0276
; #@! TA.AperFunction,Plated,PTH,ComponentDrill
T3C0.0315
; #@! TA.AperFunction,Plated,PTH,ComponentDrill
T4C0.0354
; #@! TA.AperFunction,Plated,PTH,ComponentDrill
T5C0.0394
; #@! TA.AperFunction,Plated,PTH,ComponentDrill
T6C0.0433
; #@! TA.AperFunction,Plated,PTH,ComponentDrill
T7C0.0512
; #@! TA.AperFunction,Plated,PTH,ComponentDrill
T8C0.0591
; #@! TA.AperFunction,Plated,PTH,ComponentDrill
T9C0.0630
; #@! TA.AperFunction,Plated,PTH,ComponentDrill
T10C0.0669
; #@! TA.AperFunction,Plated,PTH,ComponentDrill
T11C0.0701
; #@! TA.AperFunction,Plated,PTH,ComponentDrill
T12C0.0748
%
G90
G05
T1
X3.8725Y-5.34
X4.1725Y-2.99
X4.1725Y-4.34
X4.5475Y-2.215
X4.7Y-3.65
X4.8975Y-5.465
X4.93Y-4.83
X5.21Y-4.22
X5.255Y-2.93
X5.255Y-3.13
X5.325Y-2.45
X5.405Y-2.59
X5.41Y-2.93
X5.475Y-2.56
X5.535Y-2.75
X5.61Y-2.83
X5.61Y-2.92
X5.7225Y-5.465
X5.845Y-3.13
X6.0725Y-4.09
X6.2225Y-2.09
X6.4225Y-5.44
X6.5475Y-3.54
X6.91Y-3.065
X6.91Y-3.44
X6.9975Y-5.44
X7.2475Y-3.665
X7.3975Y-1.99
X7.4225Y-2.815
X7.4475Y-4.565
X7.46Y-4.14
X7.52Y-5.43
X7.535Y-3.665
X7.685Y-4.14
X7.735Y-4.215
X7.7725Y-2.665
X8.0475Y-4.615
X8.6225Y-4.315
X8.6475Y-3.365
T2
X7.6565Y-2.4409
X7.6565Y-3.3073
X7.6758Y-4.0439
X7.6758Y-4.9103
X7.7353Y-2.4409
X7.7353Y-3.3073
X7.7545Y-4.0439
X7.7545Y-4.9103
X7.814Y-2.4409
X7.814Y-3.3073
X7.8333Y-4.0439
X7.8333Y-4.9103
X7.8527Y-3.7386
X7.8677Y-2.1583
X7.8842Y-3.6914
X7.8928Y-2.4409
X7.8928Y-3.3073
X7.8992Y-2.1111
X7.912Y-4.0439
X7.912Y-4.9103
X7.9157Y-3.7386
X7.9307Y-2.1583
X7.9472Y-3.6914
X7.9622Y-2.1111
X7.9715Y-2.4409
X7.9715Y-3.3073
X7.9787Y-3.7386
X7.9907Y-4.0439
X7.9907Y-4.9103
X7.9937Y-2.1583
X8.0502Y-2.4409
X8.0502Y-3.3073
X8.0695Y-4.0439
X8.0695Y-4.9103
X8.129Y-2.4409
X8.129Y-3.3073
X8.1482Y-4.0439
X8.1482Y-4.9103
X8.2077Y-2.4409
X8.2077Y-3.3073
X8.227Y-4.0439
X8.227Y-4.9103
X8.2865Y-2.4409
X8.2865Y-3.3073
X8.3057Y-4.0439
X8.3057Y-4.9103
X8.3652Y-2.4409
X8.3652Y-3.3073
X8.3844Y-4.0439
X8.3844Y-4.9103
T3
X4.08Y-3.78
X4.08Y-4.18
X4.66Y-4.7
X4.7446Y-4.3486
X4.7446Y-4.4863
X4.885Y-3.0939
X4.885Y-3.1923
X5.06Y-4.7
X5.1446Y-4.3422
X5.1446Y-4.48
X5.4706Y-3.4418
X5.4706Y-3.5205
X5.4706Y-3.5992
X5.5494Y-3.4418
X5.5494Y-3.5205
X5.5494Y-3.5992
X5.955Y-2.2116
X5.955Y-2.4084
X6.0741Y-2.84
X6.0946Y-4.2838
X6.0946Y-4.4807
X6.2709Y-2.84
X6.5446Y-4.2838
X6.5446Y-4.4807
X6.6446Y-4.7282
X6.6446Y-4.925
X6.6446Y-5.1127
X6.6446Y-5.3095
X6.9604Y-4.2691
X6.9604Y-4.5691
X7.0604Y-4.2691
X7.0604Y-4.5691
X7.1604Y-4.2691
X7.1604Y-4.5691
X7.2604Y-4.2691
X7.2604Y-4.5691
X7.6946Y-5.1441
X7.6946Y-5.2819
X8.1696Y-5.1441
X8.1696Y-5.2819
X8.27Y-5.43
X8.3225Y-3.64
X8.3725Y-2.1355
X8.3725Y-2.2339
X8.4209Y-3.64
X8.4741Y-3.84
X8.6225Y-2.0916
X8.6225Y-2.2884
X8.67Y-5.43
X8.6709Y-3.84
T4
X4.08Y-4.2961
X4.08Y-4.3961
X5.161Y-4.7
X5.261Y-4.7
X5.535Y-2.2652
X5.535Y-2.3652
X5.535Y-2.4652
X5.535Y-2.6652
X5.635Y-2.2152
X5.635Y-2.3152
X5.635Y-2.4152
X5.635Y-2.5152
X5.635Y-2.6152
X7.89Y-5.41
X7.99Y-5.41
T5
X4.475Y-2.949
X4.575Y-2.949
X4.58Y-4.0
X4.58Y-4.1
X4.6333Y-3.2984
X4.6333Y-3.3984
X4.751Y-4.0008
X4.751Y-4.1008
X5.1252Y-2.179
X5.1252Y-2.279
X5.1252Y-2.601
X5.1252Y-2.701
X5.5198Y-4.3458
X5.6198Y-4.3458
X5.7198Y-4.3458
X6.5946Y-2.1458
X6.5946Y-2.8458
X6.6946Y-2.1458
X6.6946Y-2.8458
X6.7946Y-2.1458
X6.7946Y-2.8458
X6.8946Y-2.1458
X6.8946Y-2.8458
X6.9946Y-2.1458
X6.9946Y-2.8458
X7.0938Y-5.1613
X7.0946Y-2.1458
X7.0946Y-2.8458
X7.1938Y-5.1613
X7.2938Y-5.1613
X7.45Y-3.325
X7.45Y-3.425
X8.549Y-5.0492
X8.549Y-5.1492
T6
X4.96Y-3.3458
X4.96Y-3.9458
X5.06Y-3.3458
X5.06Y-3.9458
X5.16Y-3.3458
X5.16Y-3.9458
X5.26Y-3.3458
X5.26Y-3.9458
X5.36Y-3.3458
X5.36Y-3.9458
X5.46Y-3.3458
X5.46Y-3.9458
X5.56Y-3.3458
X5.56Y-3.9458
X5.66Y-3.3458
X5.66Y-3.9458
X5.76Y-3.3458
X5.76Y-3.9458
X5.86Y-3.3458
X5.86Y-3.9458
X5.96Y-3.3458
X5.96Y-3.9458
X6.06Y-3.3458
X6.06Y-3.9458
X6.16Y-3.3458
X6.16Y-3.9458
X6.26Y-3.3458
X6.26Y-3.9458
X6.36Y-3.3458
X6.36Y-3.9458
X6.46Y-3.3458
X6.46Y-3.9458
X6.56Y-3.3458
X6.56Y-3.9458
X6.66Y-3.3458
X6.66Y-3.9458
X6.76Y-3.3458
X6.76Y-3.9458
X6.86Y-3.3458
X6.86Y-3.9458
X6.96Y-3.3458
X6.96Y-3.9458
X7.06Y-3.3458
X7.06Y-3.9458
X7.16Y-3.3458
X7.16Y-3.9458
X7.26Y-3.3458
X7.26Y-3.9458
T7
X4.2566Y-4.6265
X4.2566Y-4.8265
X4.2566Y-5.0265
X4.2566Y-5.2265
T8
X6.125Y-2.51
T9
X5.4446Y-4.6958
X5.4446Y-5.2958
X5.7946Y-4.6958
X5.7946Y-5.2958
X6.1446Y-4.6958
X6.1446Y-5.2958
T10
X5.4051Y-2.1349
X5.4051Y-2.7451
T11
X4.6946Y-5.0765
X4.6946Y-5.2104
X5.0852Y-5.0765
X5.0852Y-5.2104
T12
X7.7464Y-3.714
X7.7614Y-2.1337
X8.083Y-3.714
X8.098Y-2.1337
T0
M30
